<svg width="43" height="103" viewBox="0 0 43 103" fill="none" xmlns="http://www.w3.org/2000/svg">
<path d="M89.683 17.9035C81.6649 8.92765 70.7221 3.08775 58.8022 1.42305C46.8822 -0.241648 34.7582 2.37684 24.5877 8.81255C14.4172 15.2483 6.85994 25.0837 3.26081 36.5686C-0.338329 48.0536 0.254109 60.4429 4.93269 71.532C9.61128 82.6211 18.0725 91.6906 28.8107 97.1265C39.5489 102.562 51.8674 104.012 63.5741 101.218C75.2809 98.4231 85.6165 91.5657 92.7416 81.8657C99.8667 72.1657 103.319 60.2524 102.485 48.2457L82.7253 49.6191C83.2347 56.9477 81.1274 64.2193 76.7784 70.14C72.4294 76.0606 66.1208 80.2462 58.9753 81.9519C51.8298 83.6576 44.3108 82.7727 37.7565 79.4548C31.2022 76.1368 26.0376 70.601 23.1819 63.8325C20.3262 57.064 19.9646 49.5018 22.1615 42.4917C24.3583 35.4816 28.971 29.4783 35.1789 25.5501C41.3867 21.6219 48.7869 20.0236 56.0626 21.0397C63.3382 22.0558 70.0174 25.6203 74.9115 31.099L89.683 17.9035Z" fill="url(#paint0_linear_65_1404)"/>
<defs>
<linearGradient id="paint0_linear_65_1404" x1="16.3395" y1="102.607" x2="93.3641" y2="102.607" gradientUnits="userSpaceOnUse">
<stop stop-color="#7C67BB"/>
<stop offset="1" stop-color="#63B498"/>
</linearGradient>
</defs>
</svg>
