<svg width="65" height="150" viewBox="0 0 65 150" fill="none" xmlns="http://www.w3.org/2000/svg">
<path d="M-64.9645 125.767C-52.9672 138.802 -36.7342 147.157 -19.1543 149.347C-1.57434 151.536 16.2121 147.417 31.0399 137.722C45.8678 128.028 56.7751 113.387 61.8208 96.4049C66.8666 79.423 65.7236 61.2016 58.5951 44.9834C51.4667 28.7651 38.8152 15.6021 22.8921 7.83665C6.96902 0.0712342 -11.1928 -1.79282 -28.3613 2.57619C-45.5298 6.94521 -60.5913 17.2639 -70.8656 31.696C-81.1399 46.1281 -85.9605 63.7374 -84.4695 81.3902L-55.4183 78.9365C-56.3284 68.1616 -53.386 57.4133 -47.1149 48.6043C-40.8437 39.7953 -31.6505 33.497 -21.1712 30.8303C-10.692 28.1636 0.393555 29.3013 10.1126 34.0412C19.8317 38.781 27.5538 46.8154 31.9049 56.7146C36.2559 66.6138 36.9536 77.7357 33.8738 88.1011C30.794 98.4665 24.1364 107.403 15.0859 113.32C6.03532 119.237 -4.82111 121.752 -15.5515 120.415C-26.2818 119.079 -36.1901 113.979 -43.5129 106.023L-64.9645 125.767Z" fill="url(#paint0_linear_68_1241)"/>
<defs>
<linearGradient id="paint0_linear_68_1241" x1="-62.0601" y1="149.92" x2="51.3151" y2="149.92" gradientUnits="userSpaceOnUse">
<stop stop-color="#7C67BB"/>
<stop offset="1" stop-color="#63B498"/>
</linearGradient>
</defs>
</svg>
