<svg width="52" height="53" viewBox="0 0 52 53" fill="none" xmlns="http://www.w3.org/2000/svg">
<path d="M16.5612 37.6959C17.1149 37.6959 17.5239 37.6777 17.7882 37.6412C17.7882 38.1813 17.7369 38.6222 17.6344 38.964H17.2721C17.247 38.5971 17.1639 38.359 17.0226 38.2496C16.9041 38.1562 16.6728 38.1095 16.3287 38.1095H14.9889V40.0133H15.7511C16.0131 40.0133 16.1783 39.9848 16.2467 39.9279C16.3173 39.8709 16.3652 39.8037 16.3903 39.7262C16.4176 39.6487 16.4393 39.5462 16.4552 39.4186H16.8927L16.8141 41.049H16.3937C16.3891 40.8644 16.3606 40.7254 16.3082 40.632C16.2558 40.5385 16.2 40.4804 16.1407 40.4576C16.0906 40.4371 15.9357 40.4257 15.6759 40.4235C15.4161 40.4189 15.2487 40.4166 15.1735 40.4166C15.1005 40.4143 15.039 40.4132 14.9889 40.4132V41.9991C14.9889 42.2088 15.014 42.3421 15.0641 42.399C15.1165 42.4537 15.1746 42.4902 15.2384 42.5084C15.3022 42.5244 15.3671 42.5323 15.4332 42.5323C15.4993 42.5323 15.5529 42.5323 15.5939 42.5323C15.6372 42.5301 15.6827 42.5289 15.7306 42.5289C15.8468 42.5244 15.9414 42.5164 16.0143 42.505L15.9699 42.9254H13.649L13.7072 42.5494C13.935 42.5494 14.0831 42.4993 14.1515 42.399C14.2153 42.3102 14.2472 42.1359 14.2472 41.8761V38.7521C14.2472 38.3123 14.1492 38.0924 13.9532 38.0924C13.8712 38.0924 13.7846 38.1027 13.6935 38.1232L13.7345 37.6959H16.5612ZM19.6066 42.4708C19.6407 42.5118 19.6852 42.538 19.7399 42.5494C19.7968 42.5586 19.9142 42.5631 20.0919 42.5631C20.2697 42.5631 20.4087 42.5494 20.5089 42.5221L20.485 42.9254H18.2838L18.3317 42.5631C18.5322 42.5631 18.6609 42.5278 18.7179 42.4572C18.8204 42.3295 18.8717 42.104 18.8717 41.7804V40.1329C18.8717 39.8253 18.8398 39.6351 18.776 39.5621C18.7054 39.4801 18.5504 39.4323 18.3112 39.4186L18.359 38.9811L19.5861 38.7965C19.5633 38.9628 19.5519 39.1531 19.5519 39.3673C19.7911 39.1394 20.0714 38.9674 20.3927 38.8512C20.5066 38.8125 20.6149 38.7931 20.7174 38.7931C21.1549 38.7931 21.3737 38.9879 21.3737 39.3776C21.3737 39.6077 21.3406 39.8549 21.2745 40.1193C21.27 40.1375 21.2666 40.15 21.2643 40.1569C21.262 40.1614 21.2609 40.1648 21.2609 40.1671H20.6901L20.7106 40.0065L20.7242 39.8698C20.7288 39.8265 20.7311 39.7809 20.7311 39.733C20.7311 39.6852 20.7265 39.6373 20.7174 39.5895C20.7106 39.5416 20.6958 39.5017 20.673 39.4698C20.632 39.4083 20.5625 39.3776 20.4645 39.3776C20.3665 39.3776 20.2731 39.3924 20.1842 39.422C20.0976 39.4516 20.0133 39.4869 19.9313 39.528C19.7649 39.6145 19.6362 39.7034 19.545 39.7946L19.5519 39.7911L19.5553 42.0846C19.5553 42.3011 19.5724 42.4298 19.6066 42.4708ZM23.8312 42.3922C24.2824 42.3626 24.68 42.2544 25.024 42.0675L25.1744 42.3546C24.8304 42.6394 24.4384 42.8343 23.9987 42.9391C23.8665 42.9687 23.7457 42.9835 23.6364 42.9835C22.7773 42.9835 22.2361 42.6041 22.0128 41.8453C21.9399 41.6015 21.9034 41.3178 21.9034 40.9943C21.9034 40.6684 21.9559 40.3688 22.0607 40.0953C22.1678 39.8219 22.3079 39.5895 22.4811 39.3981C22.6565 39.2044 22.8571 39.0551 23.0826 38.9503C23.3082 38.8455 23.5418 38.7931 23.7833 38.7931C24.7518 38.7931 25.236 39.3468 25.236 40.4542V40.4884C25.236 40.7778 25.2018 40.9225 25.1334 40.9225H22.6178C22.6178 41.3987 22.7226 41.761 22.9323 42.0094C23.1442 42.2578 23.4438 42.3854 23.8312 42.3922ZM24.4567 40.485C24.4589 40.4371 24.4601 40.4007 24.4601 40.3756V40.2628C24.4601 39.7273 24.312 39.3981 24.0157 39.275C23.9087 39.2295 23.7936 39.2067 23.6705 39.2067C23.5498 39.2067 23.4472 39.2249 23.3629 39.2614C23.2786 39.2978 23.1989 39.3479 23.1237 39.4117C23.0507 39.4755 22.9835 39.5507 22.922 39.6373C22.8605 39.7216 22.8069 39.8151 22.7614 39.9176C22.6657 40.1295 22.6178 40.346 22.6178 40.567L24.4567 40.485ZM27.9191 42.3922C28.3702 42.3626 28.7679 42.2544 29.1119 42.0675L29.2623 42.3546C28.9183 42.6394 28.5263 42.8343 28.0865 42.9391C27.9544 42.9687 27.8336 42.9835 27.7242 42.9835C26.8652 42.9835 26.324 42.6041 26.1007 41.8453C26.0278 41.6015 25.9913 41.3178 25.9913 40.9943C25.9913 40.6684 26.0437 40.3688 26.1486 40.0953C26.2557 39.8219 26.3958 39.5895 26.569 39.3981C26.7444 39.2044 26.9449 39.0551 27.1705 38.9503C27.3961 38.8455 27.6297 38.7931 27.8712 38.7931C28.8396 38.7931 29.3239 39.3468 29.3239 40.4542V40.4884C29.3239 40.7778 29.2897 40.9225 29.2213 40.9225H26.7057C26.7057 41.3987 26.8105 41.761 27.0201 42.0094C27.2321 42.2578 27.5317 42.3854 27.9191 42.3922ZM28.5446 40.485C28.5468 40.4371 28.548 40.4007 28.548 40.3756V40.2628C28.548 39.7273 28.3999 39.3981 28.1036 39.275C27.9965 39.2295 27.8815 39.2067 27.7584 39.2067C27.6377 39.2067 27.5351 39.2249 27.4508 39.2614C27.3665 39.2978 27.2867 39.3479 27.2115 39.4117C27.1386 39.4755 27.0714 39.5507 27.0099 39.6373C26.9484 39.7216 26.8948 39.8151 26.8492 39.9176C26.7535 40.1295 26.7057 40.346 26.7057 40.567L28.5446 40.485ZM32.4342 39.2716C32.302 39.267 32.1665 39.2648 32.0275 39.2648C31.5102 39.2648 31.1673 39.3012 30.9987 39.3741C30.7959 39.463 30.6785 39.6818 30.6466 40.0304H30.2057L30.3219 38.858H33.316L33.3741 39.2101C33.3628 39.2238 33.3252 39.2716 33.2614 39.3536C32.3317 40.6411 31.7711 41.4261 31.5797 41.7086C31.3906 41.9889 31.2163 42.2623 31.0568 42.5289C31.6925 42.5289 32.0935 42.5164 32.2599 42.4913C32.4285 42.4663 32.5459 42.4389 32.6119 42.4093C32.678 42.3774 32.7395 42.3284 32.7965 42.2623C32.9173 42.1256 33.0096 41.9057 33.0734 41.6027H33.5006L33.34 42.9254H30.2433L30.11 42.6281V42.6212L31.6993 40.3688L32.1163 39.7604C32.2439 39.5712 32.3499 39.4083 32.4342 39.2716ZM38.0568 39.2545C38.0089 39.2477 37.969 39.2443 37.9371 39.2443C37.9075 39.2443 37.8779 39.2591 37.8483 39.2887C37.8186 39.316 37.7879 39.3559 37.756 39.4083C37.7264 39.4607 37.6945 39.5234 37.6603 39.5963L37.5543 39.8458C37.4449 40.1033 37.331 40.3893 37.2125 40.7037L36.4161 42.816L36.2042 43.3561C36.0379 43.7594 35.9103 44.0271 35.8214 44.1593C35.7325 44.2915 35.646 44.394 35.5616 44.4669C35.3862 44.6196 35.1811 44.6959 34.9464 44.6959C34.7049 44.6959 34.4656 44.5911 34.2286 44.3815C34.1603 44.3199 34.101 44.255 34.0509 44.1866L34.2731 43.8073L34.3038 43.8038C34.5727 43.9542 34.7983 44.0294 34.9806 44.0294C35.2267 44.0294 35.4352 43.8494 35.6061 43.4894C35.6517 43.3937 35.6915 43.3014 35.7257 43.2125L35.859 42.8673L35.5719 42.734L35.5616 42.7306L34.3722 39.8014C34.3289 39.6966 34.2913 39.6043 34.2594 39.5245C34.2298 39.4448 34.1785 39.3776 34.1056 39.3229C34.0327 39.2682 33.9768 39.2408 33.9381 39.2408H33.8663C33.8572 39.2408 33.8401 39.242 33.8151 39.2443L33.8629 38.8615H35.5924L35.5446 39.2374C35.5035 39.2443 35.4568 39.2477 35.4044 39.2477H35.3121C35.2028 39.2477 35.1241 39.291 35.0763 39.3776C35.0558 39.4163 35.0455 39.4619 35.0455 39.5143C35.0455 39.5667 35.0592 39.6419 35.0865 39.7399C35.1139 39.8356 35.1503 39.9495 35.1959 40.0817C35.3349 40.4645 35.4443 40.7539 35.524 40.9498C35.8636 41.7998 36.047 42.2566 36.0743 42.3204C36.2863 41.7417 36.4161 41.3805 36.464 41.2369L36.775 40.3414C36.9505 39.8606 37.0382 39.5656 37.0382 39.4562C37.0382 39.3126 36.9379 39.2408 36.7374 39.2408C36.6622 39.2408 36.5768 39.2477 36.4811 39.2614L36.5392 38.8615H38.1149L38.0568 39.2545Z" fill="url(#paint0_linear_62_2622)"/>
<path d="M26.582 4.29851H34.1492V24.6716M26.582 4.29851V1H24.8358M26.582 4.29851V24.6716M24.8358 1L17.4626 4.29851V24.6716M24.8358 1V26.4179M24.8358 26.4179L17.4626 24.6716M24.8358 26.4179H26.582V24.6716M17.4626 24.6716V33.209H34.1492V24.6716M26.582 24.6716H34.1492" stroke="url(#paint1_linear_62_2622)" stroke-width="1.5"/>
<path d="M23.2835 19.2388H21.9253V22.5373H23.2835" stroke="url(#paint2_linear_62_2622)" stroke-width="1.5" stroke-linecap="round"/>
<line x1="31.7947" y1="28.1381" x2="31.7947" y2="29.3545" stroke="#65AE9B" stroke-width="1.5" stroke-linecap="round"/>
<line x1="27.5261" y1="20.041" x2="33.0112" y2="20.041" stroke="url(#paint3_linear_62_2622)" stroke-width="1.5" stroke-linecap="round"/>
<line x1="27.5261" y1="14.9962" x2="33.0112" y2="14.9962" stroke="url(#paint4_linear_62_2622)" stroke-width="1.5" stroke-linecap="round"/>
<line x1="27.5261" y1="9.95154" x2="33.0112" y2="9.95154" stroke="url(#paint5_linear_62_2622)" stroke-width="1.5" stroke-linecap="round"/>
<defs>
<linearGradient id="paint0_linear_62_2622" x1="7.76119" y1="50.2836" x2="46.5672" y2="50.2836" gradientUnits="userSpaceOnUse">
<stop stop-color="#7C67BB"/>
<stop offset="1" stop-color="#63B498"/>
</linearGradient>
<linearGradient id="paint1_linear_62_2622" x1="17.4626" y1="16.5224" x2="34.7313" y2="17.6866" gradientUnits="userSpaceOnUse">
<stop stop-color="#7D62BD"/>
<stop offset="1" stop-color="#62B498"/>
</linearGradient>
<linearGradient id="paint2_linear_62_2622" x1="21.9253" y1="20.8284" x2="23.3332" y2="20.9039" gradientUnits="userSpaceOnUse">
<stop stop-color="#7285AE"/>
</linearGradient>
<linearGradient id="paint3_linear_62_2622" x1="27.3582" y1="20.791" x2="32.597" y2="20.791" gradientUnits="userSpaceOnUse">
<stop stop-color="#6F90A9"/>
<stop offset="1" stop-color="#63B399"/>
</linearGradient>
<linearGradient id="paint4_linear_62_2622" x1="26.7761" y1="15.7462" x2="33.3246" y2="15.7462" gradientUnits="userSpaceOnUse">
<stop stop-color="#6F90A9"/>
<stop offset="1" stop-color="#63B399"/>
</linearGradient>
<linearGradient id="paint5_linear_62_2622" x1="26.7761" y1="10.2015" x2="33.1063" y2="10.2015" gradientUnits="userSpaceOnUse">
<stop stop-color="#6F90A9"/>
<stop offset="1" stop-color="#63B399"/>
</linearGradient>
</defs>
</svg>
