<svg width="52" height="53" viewBox="0 0 52 53" fill="none" xmlns="http://www.w3.org/2000/svg">
<path d="M16.5612 37.6958C17.1149 37.6958 17.5239 37.6776 17.7882 37.6411C17.7882 38.1812 17.7369 38.6221 17.6344 38.9639H17.2721C17.247 38.597 17.1639 38.3589 17.0226 38.2495C16.9041 38.1561 16.6728 38.1094 16.3287 38.1094H14.9889V40.0132H15.7511C16.0131 40.0132 16.1783 39.9847 16.2467 39.9277C16.3173 39.8708 16.3652 39.8035 16.3903 39.7261C16.4176 39.6486 16.4393 39.5461 16.4552 39.4185H16.8927L16.8141 41.0488H16.3937C16.3891 40.8643 16.3606 40.7253 16.3082 40.6318C16.2558 40.5384 16.2 40.4803 16.1407 40.4575C16.0906 40.437 15.9357 40.4256 15.6759 40.4233C15.4161 40.4188 15.2487 40.4165 15.1735 40.4165C15.1005 40.4142 15.039 40.4131 14.9889 40.4131V41.999C14.9889 42.2087 15.014 42.342 15.0641 42.3989C15.1165 42.4536 15.1746 42.4901 15.2384 42.5083C15.3022 42.5243 15.3671 42.5322 15.4332 42.5322C15.4993 42.5322 15.5529 42.5322 15.5939 42.5322C15.6372 42.5299 15.6827 42.5288 15.7306 42.5288C15.8468 42.5243 15.9414 42.5163 16.0143 42.5049L15.9699 42.9253H13.649L13.7072 42.5493C13.935 42.5493 14.0831 42.4992 14.1515 42.3989C14.2153 42.3101 14.2472 42.1357 14.2472 41.876V38.752C14.2472 38.3122 14.1492 38.0923 13.9532 38.0923C13.8712 38.0923 13.7846 38.1025 13.6935 38.123L13.7345 37.6958H16.5612ZM19.6066 42.4707C19.6407 42.5117 19.6852 42.5379 19.7399 42.5493C19.7968 42.5584 19.9142 42.563 20.0919 42.563C20.2697 42.563 20.4087 42.5493 20.5089 42.522L20.485 42.9253H18.2838L18.3317 42.563C18.5322 42.563 18.6609 42.5277 18.7179 42.457C18.8204 42.3294 18.8717 42.1038 18.8717 41.7803V40.1328C18.8717 39.8252 18.8398 39.6349 18.776 39.562C18.7054 39.48 18.5504 39.4321 18.3112 39.4185L18.359 38.981L19.5861 38.7964C19.5633 38.9627 19.5519 39.153 19.5519 39.3672C19.7911 39.1393 20.0714 38.9673 20.3927 38.8511C20.5066 38.8123 20.6149 38.793 20.7174 38.793C21.1549 38.793 21.3737 38.9878 21.3737 39.3774C21.3737 39.6076 21.3406 39.8548 21.2745 40.1191C21.27 40.1374 21.2666 40.1499 21.2643 40.1567C21.262 40.1613 21.2609 40.1647 21.2609 40.167H20.6901L20.7106 40.0063L20.7242 39.8696C20.7288 39.8263 20.7311 39.7808 20.7311 39.7329C20.7311 39.6851 20.7265 39.6372 20.7174 39.5894C20.7106 39.5415 20.6958 39.5016 20.673 39.4697C20.632 39.4082 20.5625 39.3774 20.4645 39.3774C20.3665 39.3774 20.2731 39.3923 20.1842 39.4219C20.0976 39.4515 20.0133 39.4868 19.9313 39.5278C19.7649 39.6144 19.6362 39.7033 19.545 39.7944L19.5519 39.791L19.5553 42.0845C19.5553 42.3009 19.5724 42.4297 19.6066 42.4707ZM23.8312 42.3921C24.2824 42.3625 24.68 42.2542 25.024 42.0674L25.1744 42.3545C24.8304 42.6393 24.4384 42.8341 23.9987 42.939C23.8665 42.9686 23.7457 42.9834 23.6364 42.9834C22.7773 42.9834 22.2361 42.604 22.0128 41.8452C21.9399 41.6014 21.9034 41.3177 21.9034 40.9941C21.9034 40.6683 21.9559 40.3687 22.0607 40.0952C22.1678 39.8218 22.3079 39.5894 22.4811 39.3979C22.6565 39.2043 22.8571 39.055 23.0826 38.9502C23.3082 38.8454 23.5418 38.793 23.7833 38.793C24.7518 38.793 25.236 39.3467 25.236 40.4541V40.4883C25.236 40.7777 25.2018 40.9224 25.1334 40.9224H22.6178C22.6178 41.3986 22.7226 41.7609 22.9323 42.0093C23.1442 42.2576 23.4438 42.3853 23.8312 42.3921ZM24.4567 40.4849C24.4589 40.437 24.4601 40.4006 24.4601 40.3755V40.2627C24.4601 39.7272 24.312 39.3979 24.0157 39.2749C23.9087 39.2293 23.7936 39.2065 23.6705 39.2065C23.5498 39.2065 23.4472 39.2248 23.3629 39.2612C23.2786 39.2977 23.1989 39.3478 23.1237 39.4116C23.0507 39.4754 22.9835 39.5506 22.922 39.6372C22.8605 39.7215 22.8069 39.8149 22.7614 39.9175C22.6657 40.1294 22.6178 40.3459 22.6178 40.5669L24.4567 40.4849ZM27.9191 42.3921C28.3702 42.3625 28.7679 42.2542 29.1119 42.0674L29.2623 42.3545C28.9183 42.6393 28.5263 42.8341 28.0865 42.939C27.9544 42.9686 27.8336 42.9834 27.7242 42.9834C26.8652 42.9834 26.324 42.604 26.1007 41.8452C26.0278 41.6014 25.9913 41.3177 25.9913 40.9941C25.9913 40.6683 26.0437 40.3687 26.1486 40.0952C26.2557 39.8218 26.3958 39.5894 26.569 39.3979C26.7444 39.2043 26.9449 39.055 27.1705 38.9502C27.3961 38.8454 27.6297 38.793 27.8712 38.793C28.8396 38.793 29.3239 39.3467 29.3239 40.4541V40.4883C29.3239 40.7777 29.2897 40.9224 29.2213 40.9224H26.7057C26.7057 41.3986 26.8105 41.7609 27.0201 42.0093C27.2321 42.2576 27.5317 42.3853 27.9191 42.3921ZM28.5446 40.4849C28.5468 40.437 28.548 40.4006 28.548 40.3755V40.2627C28.548 39.7272 28.3999 39.3979 28.1036 39.2749C27.9965 39.2293 27.8815 39.2065 27.7584 39.2065C27.6377 39.2065 27.5351 39.2248 27.4508 39.2612C27.3665 39.2977 27.2867 39.3478 27.2115 39.4116C27.1386 39.4754 27.0714 39.5506 27.0099 39.6372C26.9484 39.7215 26.8948 39.8149 26.8492 39.9175C26.7535 40.1294 26.7057 40.3459 26.7057 40.5669L28.5446 40.4849ZM32.4342 39.2715C32.302 39.2669 32.1665 39.2646 32.0275 39.2646C31.5102 39.2646 31.1673 39.3011 30.9987 39.374C30.7959 39.4629 30.6785 39.6816 30.6466 40.0303H30.2057L30.3219 38.8579H33.316L33.3741 39.21C33.3628 39.2236 33.3252 39.2715 33.2614 39.3535C32.3317 40.641 31.7711 41.4259 31.5797 41.7085C31.3906 41.9888 31.2163 42.2622 31.0568 42.5288C31.6925 42.5288 32.0935 42.5163 32.2599 42.4912C32.4285 42.4661 32.5459 42.4388 32.6119 42.4092C32.678 42.3773 32.7395 42.3283 32.7965 42.2622C32.9173 42.1255 33.0096 41.9056 33.0734 41.6025H33.5006L33.34 42.9253H30.2433L30.11 42.6279V42.6211L31.6993 40.3687L32.1163 39.7603C32.2439 39.5711 32.3499 39.4082 32.4342 39.2715ZM38.0568 39.2544C38.0089 39.2476 37.969 39.2441 37.9371 39.2441C37.9075 39.2441 37.8779 39.259 37.8483 39.2886C37.8186 39.3159 37.7879 39.3558 37.756 39.4082C37.7264 39.4606 37.6945 39.5233 37.6603 39.5962L37.5543 39.8457C37.4449 40.1032 37.331 40.3892 37.2125 40.7036L36.4161 42.8159L36.2042 43.356C36.0379 43.7593 35.9103 44.027 35.8214 44.1592C35.7325 44.2913 35.646 44.3939 35.5616 44.4668C35.3862 44.6195 35.1811 44.6958 34.9464 44.6958C34.7049 44.6958 34.4656 44.591 34.2286 44.3813C34.1603 44.3198 34.101 44.2549 34.0509 44.1865L34.2731 43.8071L34.3038 43.8037C34.5727 43.9541 34.7983 44.0293 34.9806 44.0293C35.2267 44.0293 35.4352 43.8493 35.6061 43.4893C35.6517 43.3936 35.6915 43.3013 35.7257 43.2124L35.859 42.8672L35.5719 42.7339L35.5616 42.7305L34.3722 39.8013C34.3289 39.6965 34.2913 39.6042 34.2594 39.5244C34.2298 39.4447 34.1785 39.3774 34.1056 39.3228C34.0327 39.2681 33.9768 39.2407 33.9381 39.2407H33.8663C33.8572 39.2407 33.8401 39.2419 33.8151 39.2441L33.8629 38.8613H35.5924L35.5446 39.2373C35.5035 39.2441 35.4568 39.2476 35.4044 39.2476H35.3121C35.2028 39.2476 35.1241 39.2909 35.0763 39.3774C35.0558 39.4162 35.0455 39.4618 35.0455 39.5142C35.0455 39.5666 35.0592 39.6418 35.0865 39.7397C35.1139 39.8354 35.1503 39.9494 35.1959 40.0815C35.3349 40.4644 35.4443 40.7537 35.524 40.9497C35.8636 41.7996 36.047 42.2565 36.0743 42.3203C36.2863 41.7415 36.4161 41.3804 36.464 41.2368L36.775 40.3413C36.9505 39.8605 37.0382 39.5654 37.0382 39.4561C37.0382 39.3125 36.9379 39.2407 36.7374 39.2407C36.6622 39.2407 36.5768 39.2476 36.4811 39.2612L36.5392 38.8613H38.1149L38.0568 39.2544Z" fill="white"/>
<path d="M26.582 4.29851H34.1492V24.6716M26.582 4.29851V1H24.8358M26.582 4.29851V24.6716M24.8358 1L17.4626 4.29851V24.6716M24.8358 1V26.4179M24.8358 26.4179L17.4626 24.6716M24.8358 26.4179H26.582V24.6716M17.4626 24.6716V33.209H34.1492V24.6716M26.582 24.6716H34.1492" stroke="white" stroke-width="1.5"/>
<path d="M23.2835 19.2388H21.9253V22.5373H23.2835" stroke="white" stroke-width="1.5" stroke-linecap="round"/>
<line x1="31.7947" y1="28.1379" x2="31.7947" y2="29.3544" stroke="white" stroke-width="1.5" stroke-linecap="round"/>
<line x1="27.5261" y1="20.041" x2="33.0112" y2="20.041" stroke="white" stroke-width="1.5" stroke-linecap="round"/>
<line x1="27.5261" y1="14.9963" x2="33.0112" y2="14.9963" stroke="white" stroke-width="1.5" stroke-linecap="round"/>
<line x1="27.5261" y1="9.95142" x2="33.0112" y2="9.95142" stroke="white" stroke-width="1.5" stroke-linecap="round"/>
</svg>
