<svg width="168" height="190" viewBox="0 0 168 190" fill="none" xmlns="http://www.w3.org/2000/svg">
<path d="M60.6797 186.179H59.7773L58.0137 183.112V186.179H57.1729V181.861H58.1191L59.8389 184.875V181.861H60.6797V186.179ZM63.4336 186.299C62.8164 186.299 62.3447 186.131 62.0186 185.795C61.5811 185.383 61.3623 184.789 61.3623 184.014C61.3623 183.223 61.5811 182.629 62.0186 182.233C62.3447 181.897 62.8164 181.729 63.4336 181.729C64.0508 181.729 64.5225 181.897 64.8486 182.233C65.2842 182.629 65.502 183.223 65.502 184.014C65.502 184.789 65.2842 185.383 64.8486 185.795C64.5225 186.131 64.0508 186.299 63.4336 186.299ZM64.2861 185.139C64.4951 184.875 64.5996 184.5 64.5996 184.014C64.5996 183.53 64.4941 183.156 64.2832 182.892C64.0742 182.626 63.791 182.494 63.4336 182.494C63.0762 182.494 62.791 182.625 62.5781 182.889C62.3652 183.153 62.2588 183.528 62.2588 184.014C62.2588 184.5 62.3652 184.875 62.5781 185.139C62.791 185.403 63.0762 185.535 63.4336 185.535C63.791 185.535 64.0752 185.403 64.2861 185.139ZM70.1689 185.291H68.5781L68.2793 186.179H67.3359L68.877 181.861H69.8965L71.4258 186.179H70.4473L70.1689 185.291ZM69.917 184.547L69.3779 182.848L68.8213 184.547H69.917ZM71.9766 181.861H72.8789V185.403H75.0176V186.179H71.9766V181.861ZM75.6445 181.861H76.5469V185.403H78.6855V186.179H75.6445V181.861ZM81.2227 186.299C80.6055 186.299 80.1338 186.131 79.8076 185.795C79.3701 185.383 79.1514 184.789 79.1514 184.014C79.1514 183.223 79.3701 182.629 79.8076 182.233C80.1338 181.897 80.6055 181.729 81.2227 181.729C81.8398 181.729 82.3115 181.897 82.6377 182.233C83.0732 182.629 83.291 183.223 83.291 184.014C83.291 184.789 83.0732 185.383 82.6377 185.795C82.3115 186.131 81.8398 186.299 81.2227 186.299ZM82.0752 185.139C82.2842 184.875 82.3887 184.5 82.3887 184.014C82.3887 183.53 82.2832 183.156 82.0723 182.892C81.8633 182.626 81.5801 182.494 81.2227 182.494C80.8652 182.494 80.5801 182.625 80.3672 182.889C80.1543 183.153 80.0479 183.528 80.0479 184.014C80.0479 184.5 80.1543 184.875 80.3672 185.139C80.5801 185.403 80.8652 185.535 81.2227 185.535C81.5801 185.535 81.8643 185.403 82.0752 185.139ZM87.2197 185.555C87.4326 185.555 87.6055 185.532 87.7383 185.485C87.9902 185.395 88.1162 185.228 88.1162 184.984C88.1162 184.841 88.0537 184.731 87.9287 184.653C87.8037 184.577 87.6074 184.509 87.3398 184.451L86.8828 184.348C86.4336 184.246 86.123 184.136 85.9512 184.017C85.6602 183.818 85.5146 183.506 85.5146 183.082C85.5146 182.696 85.6553 182.374 85.9365 182.119C86.2178 181.863 86.6309 181.735 87.1758 181.735C87.6309 181.735 88.0186 181.856 88.3389 182.098C88.6611 182.338 88.8301 182.688 88.8457 183.147H87.9785C87.9629 182.887 87.8496 182.703 87.6387 182.593C87.498 182.521 87.3232 182.485 87.1143 182.485C86.8818 182.485 86.6963 182.532 86.5576 182.625C86.4189 182.719 86.3496 182.85 86.3496 183.018C86.3496 183.172 86.418 183.288 86.5547 183.364C86.6426 183.414 86.8301 183.474 87.1172 183.542L87.8613 183.721C88.1875 183.799 88.4336 183.904 88.5996 184.035C88.8574 184.238 88.9863 184.532 88.9863 184.916C88.9863 185.311 88.835 185.639 88.5322 185.901C88.2314 186.161 87.8057 186.29 87.2549 186.29C86.6924 186.29 86.25 186.163 85.9277 185.907C85.6055 185.649 85.4443 185.295 85.4443 184.846H86.3057C86.333 185.043 86.3867 185.191 86.4668 185.288C86.6133 185.466 86.8643 185.555 87.2197 185.555ZM91.4883 184.626H90.5713V186.179H89.6748V181.861H91.5557C91.9893 181.861 92.335 181.972 92.5928 182.195C92.8506 182.417 92.9795 182.762 92.9795 183.229C92.9795 183.739 92.8506 184.099 92.5928 184.31C92.335 184.521 91.9668 184.626 91.4883 184.626ZM91.9102 183.727C92.0273 183.623 92.0859 183.459 92.0859 183.235C92.0859 183.01 92.0264 182.85 91.9072 182.754C91.79 182.659 91.625 182.611 91.4121 182.611H90.5713V183.882H91.4121C91.625 183.882 91.791 183.83 91.9102 183.727ZM95.4902 184.486H94.5586V186.179H93.6768V181.861H95.7949C96.0977 181.867 96.3301 181.904 96.4922 181.972C96.6562 182.04 96.7949 182.141 96.9082 182.274C97.002 182.383 97.0762 182.504 97.1309 182.637C97.1855 182.77 97.2129 182.921 97.2129 183.091C97.2129 183.296 97.1611 183.498 97.0576 183.698C96.9541 183.895 96.7832 184.035 96.5449 184.117C96.7441 184.197 96.8848 184.311 96.9668 184.459C97.0508 184.606 97.0928 184.83 97.0928 185.133V185.423C97.0928 185.621 97.1006 185.754 97.1162 185.825C97.1396 185.936 97.1943 186.018 97.2803 186.071V186.179H96.2871C96.2598 186.083 96.2402 186.006 96.2285 185.948C96.2051 185.827 96.1924 185.703 96.1904 185.576L96.1846 185.174C96.1807 184.899 96.1299 184.715 96.0322 184.623C95.9365 184.532 95.7559 184.486 95.4902 184.486ZM96.0381 183.701C96.2178 183.619 96.3076 183.456 96.3076 183.214C96.3076 182.953 96.2207 182.777 96.0469 182.687C95.9492 182.636 95.8027 182.611 95.6074 182.611H94.5586V183.771H95.5811C95.7842 183.771 95.9365 183.747 96.0381 183.701ZM100.998 184.292H98.9004V185.403H101.291V186.179H98.0186V181.861H101.186V182.625H98.9004V183.542H100.998V184.292ZM105.041 185.857C104.719 186.152 104.307 186.299 103.805 186.299C103.184 186.299 102.695 186.1 102.34 185.702C101.984 185.301 101.807 184.752 101.807 184.055C101.807 183.301 102.009 182.72 102.413 182.312C102.765 181.956 103.212 181.779 103.755 181.779C104.481 181.779 105.013 182.017 105.349 182.494C105.534 182.761 105.634 183.03 105.647 183.299H104.745C104.687 183.092 104.611 182.936 104.52 182.83C104.355 182.643 104.112 182.549 103.79 182.549C103.462 182.549 103.203 182.682 103.014 182.948C102.824 183.211 102.729 183.585 102.729 184.07C102.729 184.554 102.829 184.917 103.028 185.16C103.229 185.4 103.484 185.52 103.793 185.52C104.109 185.52 104.351 185.416 104.517 185.209C104.608 185.098 104.685 184.931 104.745 184.708H105.639C105.561 185.179 105.361 185.562 105.041 185.857ZM108.24 186.299C107.623 186.299 107.151 186.131 106.825 185.795C106.388 185.383 106.169 184.789 106.169 184.014C106.169 183.223 106.388 182.629 106.825 182.233C107.151 181.897 107.623 181.729 108.24 181.729C108.857 181.729 109.329 181.897 109.655 182.233C110.091 182.629 110.309 183.223 110.309 184.014C110.309 184.789 110.091 185.383 109.655 185.795C109.329 186.131 108.857 186.299 108.24 186.299ZM109.093 185.139C109.302 184.875 109.406 184.5 109.406 184.014C109.406 183.53 109.301 183.156 109.09 182.892C108.881 182.626 108.598 182.494 108.24 182.494C107.883 182.494 107.598 182.625 107.385 182.889C107.172 183.153 107.065 183.528 107.065 184.014C107.065 184.5 107.172 184.875 107.385 185.139C107.598 185.403 107.883 185.535 108.24 185.535C108.598 185.535 108.882 185.403 109.093 185.139Z" fill="url(#paint0_linear_132_947)"/>
<path d="M46.5039 135.604C48.7979 135.604 50.4924 135.528 51.5874 135.377C51.5874 137.614 51.375 139.441 50.9502 140.857H49.4492C49.3454 139.337 49.0008 138.351 48.4155 137.898C47.9246 137.511 46.9665 137.317 45.541 137.317H39.9902V145.204H43.1479C44.2336 145.204 44.918 145.086 45.2012 144.85C45.4938 144.614 45.6921 144.336 45.7959 144.015C45.9092 143.694 45.9989 143.269 46.0649 142.74H47.8774L47.5518 149.495H45.8101C45.7912 148.73 45.6732 148.154 45.4561 147.767C45.2389 147.38 45.0076 147.139 44.7622 147.045C44.5545 146.96 43.9126 146.913 42.8364 146.903C41.7603 146.885 41.0664 146.875 40.7549 146.875C40.4528 146.866 40.1979 146.861 39.9902 146.861V153.431C39.9902 154.3 40.0941 154.852 40.3018 155.088C40.5189 155.315 40.7596 155.466 41.0239 155.541C41.2882 155.607 41.5573 155.64 41.8311 155.64C42.1048 155.64 42.3267 155.64 42.4966 155.64C42.6759 155.631 42.8647 155.626 43.063 155.626C43.5444 155.607 43.9362 155.574 44.2383 155.527L44.0542 157.269H34.4395L34.6802 155.711C35.6242 155.711 36.2378 155.503 36.521 155.088C36.7853 154.72 36.9175 153.998 36.9175 152.921V139.979C36.9175 138.157 36.5116 137.246 35.6997 137.246C35.3599 137.246 35.0011 137.289 34.6235 137.374L34.7935 135.604H46.5039ZM59.1206 155.385C59.2622 155.555 59.4463 155.664 59.6729 155.711C59.9089 155.749 60.395 155.768 61.1313 155.768C61.8677 155.768 62.4435 155.711 62.8589 155.598L62.7598 157.269H53.6406L53.8389 155.768C54.6696 155.768 55.203 155.621 55.439 155.329C55.8638 154.8 56.0762 153.865 56.0762 152.525V145.7C56.0762 144.425 55.944 143.637 55.6797 143.335C55.387 142.995 54.7451 142.797 53.7539 142.74L53.9521 140.928L59.0356 140.163C58.9412 140.852 58.894 141.641 58.894 142.528C59.8853 141.584 61.0464 140.871 62.3774 140.39C62.8494 140.229 63.2979 140.149 63.7227 140.149C65.5352 140.149 66.4414 140.956 66.4414 142.57C66.4414 143.524 66.3045 144.548 66.0308 145.643C66.0119 145.719 65.9977 145.771 65.9883 145.799C65.9788 145.818 65.9741 145.832 65.9741 145.841H63.6094L63.6943 145.176L63.751 144.609C63.7699 144.43 63.7793 144.241 63.7793 144.043C63.7793 143.845 63.7604 143.647 63.7227 143.448C63.6943 143.25 63.633 143.085 63.5386 142.953C63.3687 142.698 63.0807 142.57 62.6748 142.57C62.2689 142.57 61.8818 142.632 61.5137 142.754C61.1549 142.877 60.8057 143.024 60.4658 143.193C59.7767 143.552 59.2433 143.92 58.8657 144.298L58.894 144.284L58.9082 153.785C58.9082 154.682 58.979 155.215 59.1206 155.385ZM76.6226 155.06C78.4917 154.937 80.139 154.489 81.5645 153.714L82.1875 154.904C80.762 156.084 79.1383 156.891 77.3164 157.325C76.7689 157.448 76.2686 157.509 75.8154 157.509C72.2565 157.509 70.0145 155.938 69.0894 152.794C68.7873 151.784 68.6362 150.609 68.6362 149.268C68.6362 147.918 68.8534 146.677 69.2876 145.544C69.7313 144.411 70.3118 143.448 71.0293 142.655C71.7562 141.853 72.5869 141.235 73.5215 140.8C74.4561 140.366 75.4237 140.149 76.4243 140.149C80.4364 140.149 82.4424 142.443 82.4424 147.031V147.172C82.4424 148.371 82.3008 148.971 82.0176 148.971H71.5957C71.5957 150.944 72.0299 152.445 72.8984 153.474C73.7764 154.503 75.0177 155.031 76.6226 155.06ZM79.2139 147.158C79.2233 146.96 79.228 146.809 79.228 146.705V146.238C79.228 144.019 78.6144 142.655 77.3872 142.146C76.9435 141.957 76.4668 141.862 75.957 141.862C75.4567 141.862 75.0319 141.938 74.6826 142.089C74.3333 142.24 74.0029 142.448 73.6914 142.712C73.3893 142.976 73.1108 143.288 72.856 143.647C72.6011 143.996 72.3792 144.383 72.1904 144.808C71.7939 145.686 71.5957 146.582 71.5957 147.498L79.2139 147.158ZM93.5581 155.06C95.4272 154.937 97.0745 154.489 98.5 153.714L99.123 154.904C97.6976 156.084 96.0739 156.891 94.252 157.325C93.7044 157.448 93.2041 157.509 92.751 157.509C89.1921 157.509 86.95 155.938 86.0249 152.794C85.7228 151.784 85.5718 150.609 85.5718 149.268C85.5718 147.918 85.7889 146.677 86.2231 145.544C86.6668 144.411 87.2474 143.448 87.9648 142.655C88.6917 141.853 89.5225 141.235 90.457 140.8C91.3916 140.366 92.3592 140.149 93.3599 140.149C97.3719 140.149 99.3779 142.443 99.3779 147.031V147.172C99.3779 148.371 99.2363 148.971 98.9531 148.971H88.5312C88.5312 150.944 88.9655 152.445 89.834 153.474C90.7119 154.503 91.9533 155.031 93.5581 155.06ZM96.1494 147.158C96.1589 146.96 96.1636 146.809 96.1636 146.705V146.238C96.1636 144.019 95.55 142.655 94.3228 142.146C93.8791 141.957 93.4023 141.862 92.8926 141.862C92.3923 141.862 91.9674 141.938 91.6182 142.089C91.2689 142.24 90.9385 142.448 90.627 142.712C90.3249 142.976 90.0464 143.288 89.7915 143.647C89.5366 143.996 89.3148 144.383 89.126 144.808C88.7295 145.686 88.5312 146.582 88.5312 147.498L96.1494 147.158ZM112.264 142.131C111.716 142.113 111.154 142.103 110.579 142.103C108.436 142.103 107.015 142.254 106.316 142.556C105.476 142.924 104.99 143.831 104.858 145.275H103.031L103.513 140.418H115.917L116.158 141.877C116.111 141.933 115.955 142.131 115.69 142.471C111.839 147.805 109.517 151.057 108.724 152.228C107.94 153.389 107.218 154.522 106.557 155.626C109.191 155.626 110.852 155.574 111.542 155.47C112.24 155.366 112.726 155.253 113 155.13C113.274 154.998 113.529 154.795 113.765 154.522C114.265 153.955 114.647 153.044 114.912 151.789H116.682L116.016 157.269H103.187L102.635 156.037V156.008L109.219 146.677L110.947 144.156C111.475 143.373 111.914 142.698 112.264 142.131ZM135.557 142.061C135.359 142.032 135.194 142.018 135.062 142.018C134.939 142.018 134.816 142.08 134.693 142.202C134.571 142.316 134.443 142.481 134.311 142.698C134.188 142.915 134.056 143.175 133.915 143.477L133.476 144.51C133.022 145.577 132.55 146.762 132.06 148.065L128.76 156.816L127.882 159.053C127.193 160.724 126.665 161.833 126.296 162.38C125.928 162.928 125.569 163.353 125.22 163.655C124.493 164.287 123.644 164.604 122.671 164.604C121.671 164.604 120.68 164.169 119.698 163.301C119.415 163.046 119.169 162.777 118.961 162.494L119.882 160.922L120.009 160.908C121.123 161.531 122.058 161.842 122.813 161.842C123.833 161.842 124.696 161.097 125.404 159.605C125.593 159.209 125.758 158.826 125.9 158.458L126.452 157.028L125.263 156.476L125.22 156.462L120.292 144.326C120.113 143.892 119.957 143.51 119.825 143.179C119.702 142.849 119.49 142.57 119.188 142.344C118.886 142.117 118.655 142.004 118.494 142.004H118.197C118.159 142.004 118.088 142.009 117.984 142.018L118.183 140.432H125.348L125.149 141.99C124.979 142.018 124.786 142.032 124.569 142.032H124.187C123.733 142.032 123.408 142.212 123.209 142.57C123.125 142.731 123.082 142.92 123.082 143.137C123.082 143.354 123.139 143.665 123.252 144.071C123.365 144.468 123.516 144.94 123.705 145.487C124.281 147.073 124.734 148.272 125.064 149.084C126.471 152.605 127.231 154.498 127.344 154.762C128.222 152.365 128.76 150.868 128.958 150.274L130.247 146.564C130.974 144.572 131.337 143.349 131.337 142.896C131.337 142.301 130.922 142.004 130.091 142.004C129.78 142.004 129.426 142.032 129.029 142.089L129.27 140.432H135.798L135.557 142.061Z" fill="url(#paint1_linear_132_947)"/>
<path d="M87.1816 13.9254H112V87.5821M87.1816 13.9254V2H81.4543M87.1816 13.9254V87.5821M81.4543 2L57.2725 13.9254V87.5821M81.4543 2V93.8955M81.4543 93.8955L57.2725 87.5821M81.4543 93.8955H87.1816V87.5821M57.2725 87.5821V118.448H112V87.5821M87.1816 87.5821H112" stroke="url(#paint2_linear_132_947)" stroke-width="3"/>
<path d="M76.3637 67.9403H71.9092V79.8657H76.3637" stroke="url(#paint3_linear_132_947)" stroke-width="2" stroke-linecap="round"/>
<line x1="102.818" y1="98.403" x2="102.818" y2="106.224" stroke="#65AE9B" stroke-width="2" stroke-linecap="round"/>
<line x1="88.3184" y1="73.0522" x2="110.227" y2="73.0522" stroke="url(#paint4_linear_132_947)" stroke-linecap="round"/>
<line x1="88.3184" y1="54.8134" x2="110.227" y2="54.8134" stroke="url(#paint5_linear_132_947)" stroke-linecap="round"/>
<line x1="88.3184" y1="36.5746" x2="110.227" y2="36.5746" stroke="url(#paint6_linear_132_947)" stroke-linecap="round"/>
<defs>
<linearGradient id="paint0_linear_132_947" x1="64.8185" y1="187.179" x2="105.728" y2="187.179" gradientUnits="userSpaceOnUse">
<stop stop-color="#7C67BB"/>
<stop offset="1" stop-color="#63B498"/>
</linearGradient>
<linearGradient id="paint1_linear_132_947" x1="25.4545" y1="180.179" x2="152.727" y2="180.179" gradientUnits="userSpaceOnUse">
<stop stop-color="#7C67BB"/>
<stop offset="1" stop-color="#63B498"/>
</linearGradient>
<linearGradient id="paint2_linear_132_947" x1="57.2725" y1="58.1194" x2="113.954" y2="61.5859" gradientUnits="userSpaceOnUse">
<stop stop-color="#7D62BD"/>
<stop offset="1" stop-color="#62B498"/>
</linearGradient>
<linearGradient id="paint3_linear_132_947" x1="71.9092" y1="73.6875" x2="76.5292" y2="73.912" gradientUnits="userSpaceOnUse">
<stop stop-color="#7285AE"/>
</linearGradient>
<linearGradient id="paint4_linear_132_947" x1="89.7275" y1="73.5522" x2="106.909" y2="73.5522" gradientUnits="userSpaceOnUse">
<stop stop-color="#6F90A9"/>
<stop offset="1" stop-color="#63B399"/>
</linearGradient>
<linearGradient id="paint5_linear_132_947" x1="87.8184" y1="55.3134" x2="109.296" y2="55.3134" gradientUnits="userSpaceOnUse">
<stop stop-color="#6F90A9"/>
<stop offset="1" stop-color="#63B399"/>
</linearGradient>
<linearGradient id="paint6_linear_132_947" x1="87.8184" y1="36.5746" x2="108.58" y2="36.5746" gradientUnits="userSpaceOnUse">
<stop stop-color="#6F90A9"/>
<stop offset="1" stop-color="#63B399"/>
</linearGradient>
</defs>
</svg>
