<svg width="30" height="30" viewBox="0 0 30 30" fill="none" xmlns="http://www.w3.org/2000/svg">
<path d="M24.0088 12.4418C21.7554 4.37682 17.65 2.3234 15.8661 1.80455C15.3005 1.64002 14.6997 1.64002 14.134 1.80455C12.3502 2.32328 8.24473 4.37682 5.99133 12.4417C5.99133 12.4417 2.21531 24.6507 11.5184 27.7538C13.7785 28.5065 16.2216 28.5065 18.4818 27.7538C27.7848 24.6508 24.0088 12.4418 24.0088 12.4418Z" fill="url(#paint0_linear_993_1302)"/>
<path d="M11.046 7.52549C10.6694 7.90483 10.2645 8.55715 9.86869 9.64038C9.76695 9.91232 9.71493 10.2003 9.71511 10.4907C9.71986 11.0281 9.91539 11.7067 10.9238 11.5047C10.9238 11.5047 14.0464 10.9733 13.0227 7.98581C12.7367 7.15108 11.6676 6.8993 11.046 7.52549ZM10.8098 13.4322C10.4614 13.4842 9.99349 13.5874 9.59693 13.7904C9.42428 13.8761 9.27536 14.003 9.16325 14.1598C9.05115 14.3166 8.9793 14.4986 8.95404 14.6897C8.95281 14.7001 8.95176 14.7106 8.95082 14.7212C8.93849 14.8646 8.96504 15.0087 9.02765 15.1383C9.09027 15.2679 9.18665 15.3782 9.30666 15.4577C9.42667 15.5372 9.56588 15.5829 9.70965 15.59C9.85342 15.5971 9.99644 15.5653 10.1237 15.498C10.654 15.2226 11.3931 14.7224 11.4684 14.0507C11.4764 13.964 11.4645 13.8765 11.4337 13.7951C11.4028 13.7136 11.3537 13.6402 11.2902 13.5806C11.2267 13.5209 11.1504 13.4766 11.0672 13.4508C10.9839 13.4251 10.8959 13.4187 10.8098 13.4322Z" fill="white"/>
<defs>
<linearGradient id="paint0_linear_993_1302" x1="19.539" y1="25.1769" x2="11.0271" y2="9.6284" gradientUnits="userSpaceOnUse">
<stop stop-color="#FF9C69"/>
<stop offset="0.995" stop-color="#FFCCAC"/>
</linearGradient>
</defs>
</svg>
