<svg width="30" height="30" viewBox="0 0 30 30" fill="none" xmlns="http://www.w3.org/2000/svg">
<path d="M13.0788 10.3496C13.0257 10.3496 12.9748 10.3285 12.9373 10.291C12.8998 10.2535 12.8788 10.2026 12.8788 10.1496V5.596C12.8788 5.54295 12.8998 5.49208 12.9373 5.45457C12.9748 5.41707 13.0257 5.396 13.0788 5.396C13.1318 5.396 13.1827 5.41707 13.2202 5.45457C13.2577 5.49208 13.2788 5.54295 13.2788 5.596V10.1498C13.2788 10.2028 13.2577 10.2537 13.2202 10.2912C13.1827 10.3287 13.1318 10.3496 13.0788 10.3496ZM10.2806 10.3496C10.2435 10.3497 10.2072 10.3394 10.1756 10.32C10.144 10.3006 10.1185 10.2729 10.1018 10.2398L8.04916 6.1752C8.02564 6.1279 8.02179 6.07323 8.03845 6.0231C8.0551 5.97298 8.0909 5.93148 8.13804 5.90766C8.18518 5.88384 8.23983 5.87963 8.29006 5.89596C8.34029 5.91228 8.38203 5.94781 8.40616 5.9948L10.4588 10.0594C10.4742 10.0899 10.4815 10.1238 10.4801 10.1579C10.4787 10.192 10.4685 10.2252 10.4507 10.2543C10.4328 10.2833 10.4078 10.3074 10.378 10.3241C10.3482 10.3408 10.3147 10.3495 10.2806 10.3496ZM6.65996 12.7526C6.62289 12.7526 6.58654 12.7424 6.55496 12.7229C6.52339 12.7035 6.49784 12.6757 6.48116 12.6426L4.42856 8.5782C4.4167 8.55475 4.40957 8.52921 4.40759 8.50301C4.4056 8.47682 4.4088 8.45049 4.41699 8.42553C4.42518 8.40057 4.4382 8.37747 4.45532 8.35754C4.47244 8.33761 4.49331 8.32125 4.51676 8.3094C4.5641 8.28545 4.61901 8.28128 4.66942 8.29783C4.69438 8.30602 4.71749 8.31904 4.73741 8.33616C4.75734 8.35328 4.7737 8.37415 4.78556 8.3976L6.83816 12.4626C6.85351 12.4931 6.86081 12.5269 6.85937 12.561C6.85794 12.5951 6.84781 12.6282 6.82995 12.6573C6.81209 12.6864 6.7871 12.7104 6.75734 12.7271C6.72759 12.7437 6.69407 12.7525 6.65996 12.7526ZM15.877 10.3496C15.8428 10.3496 15.8092 10.3408 15.7794 10.3241C15.7496 10.3075 15.7246 10.2834 15.7067 10.2543C15.6888 10.2252 15.6787 10.192 15.6772 10.1579C15.6758 10.1238 15.6832 10.0899 15.6986 10.0594L17.7512 5.9948C17.7753 5.94781 17.817 5.91228 17.8672 5.89596C17.9175 5.87963 17.9721 5.88384 18.0193 5.90766C18.0664 5.93148 18.1022 5.97298 18.1189 6.0231C18.1355 6.07323 18.1317 6.1279 18.1082 6.1752L16.056 10.2398C16.0392 10.2728 16.0137 10.3006 15.9821 10.32C15.9505 10.3394 15.914 10.3496 15.877 10.3496ZM19.4976 12.7526C19.4634 12.7526 19.4298 12.7438 19.4 12.7271C19.3702 12.7105 19.3452 12.6864 19.3273 12.6573C19.3094 12.6282 19.2993 12.595 19.2978 12.5609C19.2964 12.5268 19.3038 12.4929 19.3192 12.4624L21.372 8.3974C21.3971 8.35222 21.4388 8.31853 21.4882 8.30339C21.5377 8.28825 21.5911 8.29283 21.6372 8.31618C21.6834 8.33952 21.7187 8.37982 21.7358 8.42862C21.7529 8.47743 21.7504 8.53096 21.729 8.578L19.676 12.6428C19.6592 12.6758 19.6337 12.7036 19.6022 12.7229C19.5706 12.7423 19.5346 12.7526 19.4976 12.7526ZM13.0788 24.6036C13.0257 24.6036 12.9748 24.5825 12.9373 24.545C12.8998 24.5075 12.8788 24.4566 12.8788 24.4036V19.8498C12.8788 19.7968 12.8998 19.7459 12.9373 19.7084C12.9748 19.6709 13.0257 19.6498 13.0788 19.6498C13.1318 19.6498 13.1827 19.6709 13.2202 19.7084C13.2577 19.7459 13.2788 19.7968 13.2788 19.8498V24.4036C13.2788 24.4566 13.2577 24.5075 13.2202 24.545C13.1827 24.5825 13.1318 24.6036 13.0788 24.6036ZM8.22736 24.1146C8.1932 24.1146 8.15962 24.1058 8.12981 24.0891C8.10001 24.0725 8.07497 24.0484 8.05708 24.0193C8.03919 23.9902 8.02906 23.957 8.02763 23.9229C8.02621 23.8888 8.03355 23.8549 8.04896 23.8244L10.102 19.7596C10.1261 19.7126 10.1678 19.6771 10.218 19.6608C10.2683 19.6444 10.3229 19.6486 10.3701 19.6725C10.4172 19.6963 10.453 19.7378 10.4697 19.7879C10.4863 19.838 10.4825 19.8927 10.459 19.94L8.40636 24.0048C8.38967 24.0379 8.36412 24.0657 8.33255 24.0851C8.30098 24.1046 8.26463 24.1148 8.22756 24.1148L8.22736 24.1146ZM4.60676 21.7118C4.5726 21.7118 4.53902 21.703 4.50921 21.6863C4.47941 21.6697 4.45437 21.6456 4.43648 21.6165C4.41859 21.5874 4.40846 21.5542 4.40703 21.5201C4.40561 21.486 4.41295 21.4521 4.42836 21.4216L6.48116 17.3568C6.50645 17.3119 6.54808 17.2785 6.59739 17.2635C6.64669 17.2485 6.69988 17.2531 6.74587 17.2764C6.79186 17.2996 6.82712 17.3397 6.84431 17.3883C6.8615 17.4369 6.8593 17.4902 6.83816 17.5372L4.78556 21.602C4.76885 21.6351 4.74328 21.6628 4.71171 21.6822C4.68014 21.7016 4.6438 21.7118 4.60676 21.7118ZM17.93 24.1146C17.8568 24.1146 17.7864 24.0744 17.7512 24.0048L15.6986 19.94C15.6746 19.8926 15.6705 19.8377 15.6871 19.7873C15.7037 19.7369 15.7396 19.6951 15.787 19.6712C15.8343 19.6473 15.8893 19.6431 15.9397 19.6597C15.9901 19.6763 16.0318 19.7122 16.0558 19.7596L18.1082 23.8244C18.1236 23.8549 18.1309 23.8888 18.1295 23.9229C18.1281 23.957 18.1179 23.9902 18.1001 24.0193C18.0822 24.0483 18.0572 24.0724 18.0274 24.0891C17.9976 24.1058 17.9641 24.1145 17.93 24.1146ZM21.5506 21.7118C21.4776 21.7118 21.407 21.6714 21.372 21.6018L19.3192 17.5374C19.2956 17.4901 19.2918 17.4354 19.3084 17.3853C19.3251 17.3352 19.3609 17.2937 19.408 17.2699C19.4552 17.246 19.5098 17.2418 19.5601 17.2582C19.6103 17.2745 19.652 17.31 19.6762 17.357L21.729 21.4216C21.7444 21.4521 21.7518 21.486 21.7504 21.5202C21.749 21.5543 21.7389 21.5876 21.721 21.6167C21.7031 21.6458 21.678 21.6699 21.6482 21.6865C21.6183 21.7032 21.5847 21.7118 21.5506 21.7118Z" fill="#D69E4F"/>
<path d="M24.8984 19.5447C26.5009 19.5447 27.8 17.5381 27.8 15.0629C27.8 12.5876 26.5009 10.5811 24.8984 10.5811C23.2959 10.5811 21.9968 12.5876 21.9968 15.0629C21.9968 17.5381 23.2959 19.5447 24.8984 19.5447Z" fill="#D69E4F"/>
<path d="M13.1638 22.809C18.6091 22.809 23.0234 19.3129 23.0234 15.0002C23.0234 10.6875 18.6091 7.19141 13.1638 7.19141C7.71849 7.19141 3.3042 10.6875 3.3042 15.0002C3.3042 19.3129 7.71849 22.809 13.1638 22.809Z" fill="#F5B45A"/>
<path d="M3.13475 15.3945H4.42015C4.54291 15.3945 4.66447 15.3703 4.77788 15.3233C4.8913 15.2763 4.99435 15.2075 5.08115 15.1207C5.16796 15.0339 5.23682 14.9308 5.28379 14.8174C5.33077 14.704 5.35495 14.5824 5.35495 14.4597V14.4407C5.35495 14.1927 5.25646 13.955 5.08115 13.7797C4.90585 13.6043 4.66808 13.5059 4.42015 13.5059H3.13475C3.01199 13.5059 2.89043 13.53 2.77702 13.577C2.6636 13.624 2.56055 13.6929 2.47375 13.7797C2.38694 13.8665 2.31809 13.9695 2.27111 14.0829C2.22413 14.1963 2.19995 14.3179 2.19995 14.4407V14.4597C2.19995 14.7076 2.29844 14.9454 2.47375 15.1207C2.64906 15.296 2.88683 15.3945 3.13475 15.3945Z" fill="#F5B45A"/>
<path d="M3.13475 16.4136H4.42015C4.66808 16.4136 4.90585 16.3151 5.08115 16.1398C5.25646 15.9645 5.35495 15.7267 5.35495 15.4788V15.4602C5.35495 15.2123 5.25646 14.9745 5.08115 14.7992C4.90585 14.6239 4.66808 14.5254 4.42015 14.5254H3.13475C2.88686 14.5254 2.64912 14.6239 2.47382 14.7991C2.29852 14.9744 2.2 15.2121 2.19995 15.46V15.4788C2.19995 15.7267 2.29844 15.9645 2.47375 16.1398C2.64906 16.3151 2.88683 16.4136 3.13475 16.4136Z" fill="#F5B45A"/>
<path d="M8.04819 14.0473C9.02209 14.0473 9.81159 13.2578 9.81159 12.2839C9.81159 11.31 9.02209 10.5205 8.04819 10.5205C7.07429 10.5205 6.28479 11.31 6.28479 12.2839C6.28479 13.2578 7.07429 14.0473 8.04819 14.0473Z" fill="#FCFFFB"/>
<path d="M8.04821 13.4565C8.69582 13.4565 9.22081 12.9315 9.22081 12.2839C9.22081 11.6363 8.69582 11.1113 8.04821 11.1113C7.4006 11.1113 6.87561 11.6363 6.87561 12.2839C6.87561 12.9315 7.4006 13.4565 8.04821 13.4565Z" fill="#1F323A"/>
<path d="M7.813 12.0486C7.94279 12.0486 8.048 11.9434 8.048 11.8136C8.048 11.6838 7.94279 11.5786 7.813 11.5786C7.68322 11.5786 7.578 11.6838 7.578 11.8136C7.578 11.9434 7.68322 12.0486 7.813 12.0486Z" fill="#FCFFFB"/>
<path d="M8.16385 11.814C8.1992 11.814 8.22785 11.7854 8.22785 11.75C8.22785 11.7147 8.1992 11.686 8.16385 11.686C8.12851 11.686 8.09985 11.7147 8.09985 11.75C8.09985 11.7854 8.12851 11.814 8.16385 11.814Z" fill="#FCFFFB"/>
<path d="M12.7982 20.8615C12.1196 20.8615 11.0852 20.4179 9.56498 18.8103C9.45358 19.1165 9.23498 19.5249 8.83838 19.6601C8.43898 19.7953 7.97638 19.6253 7.46218 19.1529C7.42459 19.1167 7.40266 19.0672 7.40106 19.0151C7.39946 18.9629 7.41832 18.9121 7.45362 18.8737C7.48892 18.8352 7.53785 18.8121 7.58997 18.8092C7.6421 18.8064 7.69327 18.824 7.73258 18.8583C8.00658 19.1097 8.39778 19.3863 8.70938 19.2813C9.12938 19.1383 9.27078 18.3859 9.27198 18.3783C9.27838 18.3414 9.29502 18.307 9.32 18.2791C9.34499 18.2512 9.37731 18.2309 9.41329 18.2204C9.44927 18.21 9.48746 18.2099 9.5235 18.2201C9.55955 18.2303 9.59201 18.2504 9.61718 18.2781C11.7268 20.6029 12.7792 20.5387 13.1346 20.4031C13.537 20.2493 13.7802 19.7641 13.7852 19.1053C13.7918 18.1909 13.3066 17.0225 12.394 16.6585C12.369 16.6493 12.346 16.6351 12.3266 16.6168C12.3071 16.5986 12.2915 16.5766 12.2807 16.5522C12.2699 16.5278 12.264 16.5015 12.2635 16.4748C12.263 16.4482 12.2678 16.4217 12.2777 16.3969C12.2876 16.3721 12.3023 16.3495 12.3211 16.3305C12.3398 16.3115 12.3622 16.2965 12.3868 16.2863C12.4115 16.276 12.4379 16.2708 12.4646 16.271C12.4913 16.2711 12.5176 16.2766 12.5422 16.2871C13.6312 16.7213 14.193 18.0351 14.1852 19.1083C14.179 19.9383 13.8396 20.5621 13.2772 20.7767C13.1241 20.8342 12.9617 20.863 12.7982 20.8615ZM7.48558 18.2193C7.19678 18.2193 6.89258 18.1465 6.57618 18.0011C6.55185 17.9905 6.52988 17.9751 6.51156 17.9558C6.49324 17.9366 6.47894 17.9139 6.4695 17.8891C6.46005 17.8642 6.45564 17.8378 6.45653 17.8112C6.45743 17.7847 6.4636 17.7586 6.47469 17.7344C6.48578 17.7103 6.50158 17.6886 6.52114 17.6706C6.54071 17.6527 6.56366 17.6388 6.58866 17.6298C6.61365 17.6208 6.64019 17.6168 6.66672 17.6182C6.69325 17.6196 6.71924 17.6262 6.74318 17.6377C7.18418 17.8401 7.58618 17.8723 7.93798 17.7343C8.53898 17.4973 8.81718 16.8341 8.81998 16.8273C8.84093 16.7797 8.87965 16.742 8.92791 16.7225C8.97617 16.7029 9.03017 16.7029 9.07842 16.7225C9.12666 16.7421 9.16535 16.7798 9.18626 16.8275C9.20717 16.8752 9.20865 16.9292 9.19038 16.9779C9.17698 17.0115 8.84898 17.8031 8.08838 18.1049C7.89655 18.1811 7.69196 18.2199 7.48558 18.2193Z" fill="#D69E4F"/>
</svg>
