<svg width="30" height="30" viewBox="0 0 30 30" fill="none" xmlns="http://www.w3.org/2000/svg">
<g clip-path="url(#clip0_993_1242)">
<path d="M21.3926 8.1224C21.271 8.12613 21.1556 8.17702 21.0708 8.26429L1.0756 28.2606C1.03187 28.3042 0.997161 28.356 0.973464 28.413C0.949767 28.47 0.937546 28.5312 0.9375 28.5929C0.937454 28.6547 0.949584 28.7159 0.973196 28.7729C0.996809 28.83 1.03144 28.8819 1.07511 28.9255C1.11878 28.9692 1.17063 29.0038 1.22769 29.0274C1.28476 29.0511 1.34592 29.0632 1.40767 29.0631C1.46943 29.0631 1.53057 29.0509 1.5876 29.0272C1.64463 29.0035 1.69643 28.9688 1.74003 28.925L21.7352 8.92875C21.8037 8.86288 21.8505 8.77778 21.8695 8.68472C21.8885 8.59165 21.8788 8.495 21.8416 8.40758C21.8045 8.32016 21.7417 8.24608 21.6615 8.19515C21.5813 8.14423 21.4876 8.11886 21.3926 8.1224Z" fill="#FFAF7A"/>
<path d="M24.8067 3.21477C23.8092 3.48211 22.6061 3.92378 21.7729 4.75704C20.9986 5.53136 20.5676 6.2951 20.4566 7.02771C20.3457 7.76033 20.59 8.44826 21.0704 8.92868C21.5508 9.4091 22.2419 9.65667 22.9745 9.54572C23.7071 9.43477 24.4682 9.00115 25.2425 8.22683C26.0757 7.39357 26.5167 6.1897 26.784 5.19214C27.0514 4.19458 27.1317 3.38117 27.1317 3.38117C27.1464 3.23896 27.0953 3.09783 26.9931 2.99787C26.9813 2.98642 26.9687 2.97561 26.9556 2.96549C26.8603 2.89161 26.7402 2.85729 26.6202 2.86967C26.6202 2.86967 25.8043 2.94742 24.8067 3.21477Z" fill="#FFC6A0"/>
<path d="M21.824 4.70991C21.8279 4.75802 21.8449 4.80038 21.8734 4.83352C21.9741 4.94887 22.1899 4.92594 22.356 4.78224C22.5219 4.63812 22.5751 4.42761 22.475 4.31159C22.452 4.28567 22.4222 4.2661 22.3871 4.25391C22.1878 4.39108 21.998 4.54195 21.824 4.70991Z" fill="#FFEBDE"/>
<path d="M28.5768 0.937826C28.4551 0.941565 28.3397 0.992446 28.2549 1.07972L26.3862 2.94853C26.3403 2.9914 26.3034 3.04306 26.2779 3.10045C26.2523 3.15784 26.2385 3.21978 26.2374 3.2826C26.2362 3.34542 26.2477 3.40784 26.2711 3.46614C26.2945 3.52443 26.3294 3.57743 26.3737 3.62197C26.418 3.66652 26.4708 3.7017 26.529 3.72543C26.5872 3.74917 26.6495 3.76096 26.7124 3.76013C26.7752 3.75929 26.8372 3.74583 26.8947 3.72056C26.9522 3.69528 27.0041 3.6587 27.0472 3.61299L28.9194 1.74418C28.9878 1.67831 29.0346 1.59321 29.0536 1.50015C29.0726 1.40708 29.0629 1.31043 29.0258 1.22301C28.9886 1.13559 28.9258 1.06151 28.8456 1.01058C28.7654 0.959657 28.6717 0.934285 28.5768 0.937826ZM26.8569 9.15367C26.7352 9.15741 26.6198 9.20829 26.535 9.29556L24.6248 11.2059C24.5791 11.249 24.5425 11.3009 24.5172 11.3584C24.492 11.4159 24.4785 11.4779 24.4777 11.5408C24.4768 11.6036 24.4886 11.6659 24.5124 11.7241C24.5361 11.7823 24.5713 11.8351 24.6158 11.8794C24.6604 11.9237 24.7134 11.9586 24.7716 11.982C24.8299 12.0055 24.8924 12.0169 24.9552 12.0158C25.018 12.0146 25.0799 12.0008 25.1373 11.9753C25.1947 11.9497 25.2464 11.9128 25.2892 11.8669L27.1995 9.95657C27.2666 9.89048 27.3123 9.80569 27.3306 9.71324C27.3489 9.62079 27.3389 9.52499 27.3019 9.43831C27.2649 9.35164 27.2027 9.27812 27.1233 9.22735C27.0439 9.17657 26.9511 9.1509 26.8569 9.15367ZM20.3648 2.66129C20.2432 2.66502 20.1278 2.7159 20.043 2.80318L18.1328 4.71352C18.087 4.75663 18.0505 4.80848 18.0252 4.866C17.9999 4.92352 17.9865 4.98554 17.9856 5.04836C17.9848 5.11119 17.9966 5.17354 18.0203 5.23171C18.0441 5.28989 18.0792 5.3427 18.1238 5.38701C18.1683 5.43132 18.2213 5.46623 18.2796 5.48965C18.3379 5.51308 18.4003 5.52456 18.4631 5.52339C18.5259 5.52223 18.5879 5.50845 18.6453 5.48287C18.7027 5.4573 18.7543 5.42045 18.7972 5.37452L20.704 3.46418C20.7709 3.3983 20.8165 3.31383 20.8349 3.22172C20.8532 3.12961 20.8435 3.03411 20.807 2.94759C20.7704 2.86107 20.7087 2.78752 20.6299 2.73648C20.5511 2.68543 20.4587 2.65923 20.3648 2.66129ZM28.2411 5.89364C28.1195 5.89737 28.0041 5.94826 27.9193 6.03553L26.9226 7.03223C26.8769 7.07533 26.8403 7.12719 26.8151 7.18471C26.7898 7.24223 26.7763 7.30425 26.7755 7.36708C26.7746 7.4299 26.7864 7.49225 26.8102 7.55043C26.8339 7.60861 26.8691 7.66142 26.9136 7.70573C26.9582 7.75004 27.0112 7.78495 27.0695 7.80838C27.1278 7.83181 27.1902 7.84328 27.253 7.84211C27.3158 7.84095 27.3777 7.82717 27.4351 7.80159C27.4925 7.77602 27.5442 7.73917 27.587 7.69323L28.5802 6.69999C28.6484 6.63432 28.6951 6.54955 28.7142 6.45683C28.7333 6.3641 28.7239 6.26778 28.6872 6.18051C28.6505 6.09325 28.5882 6.01914 28.5086 5.96794C28.429 5.91673 28.3357 5.89083 28.2411 5.89364ZM23.6074 1.26314C23.4858 1.26688 23.3703 1.31776 23.2855 1.40503L22.2924 2.39827C21.8494 2.84124 22.5138 3.50571 22.9568 3.06273L23.95 2.0695C24.2602 1.7709 24.0377 1.24709 23.6074 1.26314Z" fill="#FFAF7A"/>
<path d="M22.4911 7.21676C22.3315 7.54039 22.3 7.73753 22.1297 7.69165C21.8792 7.62418 21.798 7.12767 21.9577 6.80401C22.1173 6.48039 22.5321 6.3029 22.7076 6.51968C22.8475 6.69244 22.6507 6.89313 22.4911 7.21676Z" fill="#FFBA8D"/>
<path d="M8.16307 14.8504C8.07448 14.8552 7.98907 14.885 7.91677 14.9364C7.91677 14.9364 7.25253 15.4111 6.52229 16.1414C5.79206 16.8718 4.96951 17.8582 4.66452 18.9965C4.3811 20.0542 4.38699 20.9327 4.6572 21.6226C4.92742 22.3125 5.48516 22.7827 6.14141 22.9585C6.79766 23.1344 7.51818 23.0061 8.09715 22.5437C8.67613 22.0814 9.11848 21.3242 9.4019 20.2665C9.70688 19.1282 9.48876 17.8652 9.22151 16.8676C8.95426 15.87 8.61629 15.1241 8.61629 15.1241C8.53614 14.9481 8.35615 14.8394 8.16307 14.8504Z" fill="#FFC6A0"/>
<path d="M5.18005 17.8096C5.19648 17.8458 5.22081 17.8748 5.25145 17.8948C5.3727 17.9722 5.56085 17.8939 5.67171 17.7199C5.78236 17.5455 5.77334 17.3417 5.65157 17.2648C5.62642 17.2493 5.59762 17.24 5.56643 17.2373C5.4298 17.421 5.2986 17.6104 5.18005 17.8096Z" fill="#FFEBDE"/>
<path d="M5.84114 19.1522C6.01451 19.3101 5.84111 19.5507 5.72614 19.9135C5.61117 20.2763 5.60974 20.4868 5.42481 20.4661C5.15291 20.4355 4.98941 19.9307 5.10442 19.5679C5.2194 19.2051 5.62365 18.9541 5.84114 19.1522Z" fill="#FFBA8D"/>
<path d="M9.73425 20.5985C8.67652 20.8819 7.91951 21.3243 7.45713 21.9033C6.99474 22.4823 6.86559 23.202 7.04144 23.8583C7.21729 24.5145 7.6874 25.0723 8.37731 25.3425C9.06722 25.6128 9.94647 25.6195 11.0042 25.3362C12.1424 25.0311 13.1288 24.2076 13.8591 23.4773C14.5894 22.7471 15.0631 22.0828 15.0631 22.0828C15.2341 21.8429 15.1442 21.5066 14.8763 21.3841C14.8763 21.3841 14.1296 21.0452 13.1321 20.778C12.5086 20.6109 11.7817 20.4639 11.0463 20.4511C10.6051 20.4435 10.1611 20.4841 9.73425 20.5985Z" fill="#FFC6A0"/>
<path d="M11.4044 20.5713C11.4058 20.5373 11.3967 20.5033 11.3778 20.4715C11.2674 20.4638 11.1575 20.4533 11.0464 20.4513C10.9473 20.4496 10.8488 20.4607 10.7497 20.4641C10.7359 20.4879 10.7278 20.5133 10.7259 20.5392C10.7197 20.6701 10.8669 20.7833 11.0546 20.7919C11.2417 20.8004 11.3981 20.7017 11.4044 20.5713Z" fill="#FFEBDE"/>
<path d="M11.2498 22.0911C11.2215 22.2981 10.9575 22.2924 10.6332 22.3913C10.3089 22.4902 10.1537 22.5955 10.0755 22.4493C9.96052 22.2343 10.2483 21.8593 10.5727 21.7605C10.897 21.6615 11.2853 21.8315 11.2498 22.0911Z" fill="#FFBA8D"/>
<path d="M14.1256 21.1455C14.1256 21.1455 13.6519 21.8098 12.9216 22.5401C12.1913 23.2703 11.2049 24.0939 10.0667 24.3989C9.00899 24.6822 8.12975 24.6755 7.43984 24.4052C7.36149 24.3746 7.28716 24.3387 7.2146 24.3009C7.45173 24.7598 7.84938 25.1361 8.37742 25.3429C9.06733 25.6131 9.94658 25.6199 11.0043 25.3365C12.1425 25.0315 13.1289 24.208 13.8592 23.4777C14.5895 22.7475 15.0632 22.0832 15.0632 22.0832C15.2343 21.8433 15.1443 21.507 14.8764 21.3845C14.8764 21.3845 14.5859 21.2576 14.1531 21.1016C14.1447 21.1166 14.1356 21.1314 14.1256 21.1455Z" fill="#FFAF7A"/>
<path d="M9.73425 20.5985C8.67652 20.8819 7.91951 21.3243 7.45713 21.9033C6.99474 22.4823 6.86559 23.202 7.04144 23.8583C7.09483 24.0575 7.17854 24.2456 7.28408 24.4214C7.22144 24.2926 7.16755 24.1595 7.13025 24.0203C6.95126 23.3523 7.08352 22.6199 7.55418 22.0306C8.02484 21.4413 8.79493 20.9905 9.87159 20.702C10.3061 20.5855 10.7583 20.544 11.2075 20.5518C11.9561 20.5649 12.6961 20.7151 13.3308 20.8851C14.2216 21.1238 14.8247 21.3823 14.9816 21.451C14.9496 21.4241 14.9142 21.4016 14.8763 21.3841C14.8763 21.3841 14.1296 21.0452 13.1321 20.778C12.5086 20.6109 11.7817 20.4639 11.0463 20.4511C10.6051 20.4435 10.1611 20.4841 9.73425 20.5985Z" fill="#FFEBDE"/>
<path d="M8.16309 14.8504C8.09207 14.8543 8.02287 14.8743 7.96074 14.909C8.06378 15.1952 8.17753 15.5327 8.28395 15.9299C8.5512 16.9275 8.76931 18.1906 8.46433 19.3289C8.18091 20.3866 7.73856 21.1437 7.15958 21.6061C6.58061 22.0685 5.86009 22.1967 5.20384 22.0209C5.04987 21.9796 4.90228 21.9205 4.7616 21.8478C5.05685 22.4143 5.55969 22.8027 6.14142 22.9585C6.79767 23.1344 7.51819 23.0061 8.09717 22.5437C8.67614 22.0814 9.11849 21.3242 9.40191 20.2665C9.7069 19.1282 9.48879 17.8652 9.22154 16.8676C8.95428 15.87 8.61632 15.1241 8.61632 15.1241C8.53616 14.9481 8.35617 14.8394 8.16309 14.8504Z" fill="#FFAF7A"/>
<path d="M8.12644 14.854C8.05089 14.864 7.97892 14.8923 7.91677 14.9364C7.91677 14.9364 7.25253 15.4111 6.52229 16.1414C5.79206 16.8717 4.96951 17.8582 4.66452 18.9964C4.3811 20.0542 4.38699 20.9326 4.6572 21.6226C4.78072 21.9379 4.96633 22.2046 5.19192 22.421C5.04023 22.2354 4.91172 22.0249 4.81835 21.7865C4.53459 21.062 4.52804 20.1393 4.82567 19.0285C5.14595 17.8332 6.01 16.7975 6.77684 16.0306C7.44504 15.3624 7.97915 14.9624 8.12644 14.854Z" fill="#FFEBDE"/>
<path d="M13.2613 9.75173C13.1727 9.75653 13.0873 9.78639 13.015 9.83781C13.015 9.83781 12.3508 10.3125 11.6206 11.0428C10.8903 11.7731 10.0678 12.7596 9.76279 13.8978C9.47937 14.9556 9.48525 15.834 9.75547 16.524C10.0257 17.2139 10.5834 17.6841 11.2397 17.8599C11.8959 18.0357 12.6164 17.9075 13.1954 17.4451C13.7744 16.9827 14.2167 16.2256 14.5002 15.1679C14.8051 14.0296 14.587 12.7665 14.3198 11.7689C14.0525 10.7713 13.7146 10.0255 13.7146 10.0255C13.6344 9.84951 13.4544 9.74078 13.2613 9.75173Z" fill="#FFC6A0"/>
<path d="M10.2783 12.7109C10.2947 12.7471 10.3191 12.7762 10.3497 12.7961C10.471 12.8736 10.6591 12.7953 10.77 12.6212C10.8806 12.4469 10.8716 12.243 10.7498 12.1662C10.7247 12.1506 10.6959 12.1414 10.6647 12.1387C10.5281 12.3224 10.3969 12.5117 10.2783 12.7109Z" fill="#FFEBDE"/>
<path d="M10.9393 14.0536C11.1127 14.2114 10.9393 14.452 10.8243 14.8148C10.7093 15.1776 10.7079 15.3882 10.523 15.3674C10.2511 15.3369 10.0876 14.8321 10.2026 14.4693C10.3175 14.1065 10.7218 13.8555 10.9393 14.0536Z" fill="#FFBA8D"/>
<path d="M14.8325 15.5004C13.7748 15.7838 13.0178 16.2262 12.5554 16.8052C12.093 17.3842 11.9639 18.1038 12.1397 18.7601C12.3156 19.4164 12.7857 19.9742 13.4756 20.2444C14.1655 20.5146 15.0447 20.5214 16.1025 20.238C17.2407 19.933 18.227 19.1095 18.9573 18.3792C19.6876 17.649 20.1614 16.9847 20.1614 16.9847C20.3324 16.7448 20.2425 16.4085 19.9746 16.286C19.9746 16.286 19.2279 15.9471 18.2303 15.6799C17.6069 15.5128 16.88 15.3658 16.1446 15.353C15.7033 15.3453 15.2594 15.386 14.8325 15.5004Z" fill="#FFC6A0"/>
<path d="M15.8242 15.4406C15.818 15.5715 15.9652 15.6847 16.1529 15.6933C16.3399 15.7018 16.4964 15.6031 16.5026 15.4727C16.5041 15.4387 16.495 15.4047 16.4761 15.3729C16.3657 15.3652 16.2557 15.3547 16.1446 15.3527C16.0456 15.351 15.947 15.3621 15.848 15.3655C15.8341 15.3893 15.8261 15.4147 15.8242 15.4406Z" fill="#FFEBDE"/>
<path d="M16.348 16.993C16.3197 17.1999 16.0556 17.1942 15.7313 17.2931C15.407 17.392 15.2518 17.4973 15.1736 17.3511C15.0587 17.1362 15.3465 16.7612 15.6708 16.6623C15.9951 16.5634 16.3835 16.7333 16.348 16.993Z" fill="#FFBA8D"/>
<path d="M15.165 19.3002C14.1073 19.5836 13.228 19.5769 12.5381 19.3066C12.4598 19.2759 12.3854 19.2401 12.3129 19.2022C12.55 19.6612 12.9476 20.0374 13.4757 20.2443C14.1656 20.5145 15.0448 20.5213 16.1026 20.2379C17.2408 19.9329 18.2272 19.1093 18.9575 18.3791C19.6877 17.6488 20.1615 16.9845 20.1615 16.9845C20.3325 16.7447 20.2426 16.4084 19.9747 16.2859C19.9747 16.2859 19.6842 16.159 19.2513 16.0029C19.243 16.0181 19.2338 16.0327 19.2239 16.0469C19.2239 16.0469 18.7502 16.7112 18.0199 17.4414C17.2896 18.1717 16.3032 18.9952 15.165 19.3002Z" fill="#FFAF7A"/>
<path d="M14.8325 15.5004C13.7748 15.7838 13.0178 16.2262 12.5554 16.8052C12.093 17.3842 11.9639 18.1039 12.1397 18.7601C12.1931 18.9594 12.2768 19.1475 12.3823 19.3233C12.3197 19.1945 12.2658 19.0614 12.2285 18.9222C12.0495 18.2542 12.1818 17.5218 12.6524 16.9325C13.1231 16.3431 13.8932 15.8923 14.9699 15.6038C15.4043 15.4874 15.8566 15.4459 16.3057 15.4537C17.0543 15.4667 17.7944 15.6169 18.429 15.787C19.3199 16.0256 19.923 16.2841 20.0799 16.3529C20.0479 16.326 20.0125 16.3035 19.9746 16.286C19.9746 16.286 19.2279 15.9471 18.2303 15.6798C17.6069 15.5128 16.88 15.3658 16.1446 15.353C15.7033 15.3453 15.2594 15.386 14.8325 15.5004Z" fill="#FFEBDE"/>
<path d="M13.2614 9.75173C13.1903 9.75567 13.1211 9.7757 13.059 9.81034C13.162 10.0965 13.2758 10.4341 13.3822 10.8313C13.6495 11.8289 13.8676 13.092 13.5626 14.2302C13.2792 15.288 12.8368 16.0451 12.2578 16.5075C11.6789 16.9699 10.9584 17.0981 10.3021 16.9223C10.1481 16.881 10.0005 16.8219 9.85986 16.7492C10.1551 17.3157 10.658 17.704 11.2397 17.8599C11.8959 18.0357 12.6165 17.9075 13.1954 17.4451C13.7744 16.9827 14.2168 16.2256 14.5002 15.1679C14.8052 14.0296 14.5871 12.7665 14.3198 11.7689C14.0526 10.7713 13.7146 10.0255 13.7146 10.0255C13.6344 9.84951 13.4544 9.74078 13.2614 9.75173Z" fill="#FFAF7A"/>
<path d="M13.2247 9.75537C13.1492 9.76538 13.0772 9.79368 13.015 9.83778C13.015 9.83778 12.3508 10.3125 11.6206 11.0428C10.8903 11.7731 10.0678 12.7596 9.76279 13.8978C9.47937 14.9556 9.48525 15.834 9.75546 16.5239C9.87898 16.8393 10.0646 17.106 10.2902 17.3224C10.1385 17.1367 10.01 16.9262 9.91661 16.6878C9.63285 15.9633 9.62631 15.0406 9.92394 13.9299C10.2442 12.7346 11.1083 11.6989 11.8751 10.932C12.5433 10.2637 13.0774 9.86379 13.2247 9.75537Z" fill="#FFEBDE"/>
<path d="M18.4359 4.57693C18.3473 4.58173 18.2619 4.61158 18.1896 4.663C18.1896 4.663 17.5254 5.1377 16.7951 5.86801C16.0649 6.59832 15.2423 7.58478 14.9373 8.72304C14.6539 9.78078 14.6598 10.6592 14.93 11.3491C15.2002 12.0391 15.758 12.5093 16.4142 12.6851C17.0705 12.8609 17.791 12.7327 18.37 12.2703C18.9489 11.8079 19.3913 11.0508 19.6747 9.99306C19.9797 8.8548 19.7616 7.59171 19.4943 6.59413C19.2271 5.59654 18.8891 4.85071 18.8891 4.85071C18.809 4.67471 18.629 4.56598 18.4359 4.57693Z" fill="#FFC6A0"/>
<path d="M15.4529 7.53663C15.4693 7.57283 15.4936 7.60185 15.5243 7.62181C15.6455 7.69924 15.8337 7.62095 15.9445 7.44692C16.0552 7.27254 16.0462 7.0687 15.9244 6.99184C15.8992 6.97632 15.8704 6.96703 15.8393 6.96436C15.7026 7.14804 15.5714 7.33743 15.4529 7.53663Z" fill="#FFEBDE"/>
<path d="M16.114 8.87879C16.2873 9.03663 16.1139 9.27723 15.999 9.64003C15.884 10.0028 15.8826 10.2134 15.6976 10.1926C15.4257 10.1621 15.2622 9.6573 15.3772 9.29446C15.4922 8.93166 15.8965 8.68068 16.114 8.87879Z" fill="#FFBA8D"/>
<path d="M20.0071 10.3256C18.9493 10.609 18.1923 11.0514 17.73 11.6304C17.2676 12.2094 17.1384 12.929 17.3143 13.5853C17.4901 14.2416 17.9602 14.7994 18.6501 15.0696C19.34 15.3398 20.2193 15.3466 21.277 15.0632C22.4153 14.7582 23.4016 13.9346 24.1319 13.2044C24.8622 12.4742 25.3359 11.8098 25.3359 11.8098C25.507 11.57 25.417 11.2337 25.1491 11.1112C25.1491 11.1112 24.4025 10.7723 23.4049 10.505C22.7814 10.338 22.0546 10.191 21.3191 10.1781C20.8779 10.1705 20.4339 10.2112 20.0071 10.3256Z" fill="#FFC6A0"/>
<path d="M21.3274 10.5185C21.5145 10.527 21.6709 10.4283 21.6772 10.2979C21.6786 10.2639 21.6696 10.2299 21.6506 10.1981C21.5402 10.1904 21.4303 10.1799 21.3192 10.1779C21.2202 10.1762 21.1216 10.1873 21.0225 10.1907C21.0087 10.2145 21.0007 10.2399 20.9987 10.2658C20.9925 10.3967 21.1398 10.5099 21.3274 10.5185Z" fill="#FFEBDE"/>
<path d="M21.5225 11.8182C21.4942 12.0251 21.2302 12.0194 20.9059 12.1183C20.5816 12.2172 20.4264 12.3225 20.3482 12.1763C20.2332 11.9614 20.521 11.5864 20.8454 11.4875C21.1697 11.3886 21.5581 11.5585 21.5225 11.8182Z" fill="#FFBA8D"/>
<path d="M20.3395 14.1254C19.2818 14.4088 18.4026 14.4021 17.7127 14.1318C17.6343 14.1011 17.56 14.0653 17.4874 14.0274C17.7246 14.4864 18.1222 14.8627 18.6502 15.0695C19.3402 15.3397 20.2194 15.3465 21.2771 15.0631C22.4154 14.7581 23.4017 13.9345 24.132 13.2043C24.8623 12.474 25.336 11.8097 25.336 11.8097C25.5071 11.5699 25.4172 11.2336 25.1493 11.1111C25.1493 11.1111 24.8588 10.9842 24.4259 10.8281C24.4176 10.8433 24.4084 10.8579 24.3984 10.8721C24.3984 10.8721 23.9247 11.5364 23.1944 12.2666C22.4641 12.9969 21.4778 13.8204 20.3395 14.1254Z" fill="#FFAF7A"/>
<path d="M20.0071 10.3256C18.9493 10.609 18.1923 11.0514 17.73 11.6304C17.2676 12.2094 17.1384 12.929 17.3143 13.5853C17.3677 13.7846 17.4514 13.9727 17.5569 14.1485C17.4943 14.0197 17.4404 13.8866 17.4031 13.7474C17.2241 13.0794 17.3564 12.347 17.827 11.7577C18.2977 11.1683 19.0678 10.7175 20.1444 10.429C20.5789 10.3126 21.0311 10.2711 21.4803 10.2789C22.2289 10.2919 22.969 10.4421 23.6036 10.6122C24.4945 10.8508 25.0975 11.1093 25.2544 11.178C25.2225 11.1512 25.187 11.1287 25.1491 11.1112C25.1491 11.1112 24.4025 10.7723 23.4049 10.505C22.7814 10.338 22.0546 10.191 21.3191 10.1781C20.8779 10.1705 20.4339 10.2112 20.0071 10.3256Z" fill="#FFEBDE"/>
<path d="M18.4359 4.57692C18.3649 4.58086 18.2957 4.6009 18.2336 4.63553C18.3366 4.92173 18.4504 5.25925 18.5568 5.65649C18.824 6.65407 19.0421 7.91716 18.7372 9.05542C18.4537 10.1132 18.0114 10.8703 17.4324 11.3327C16.8534 11.795 16.1329 11.9233 15.4767 11.7475C15.3227 11.7062 15.1751 11.6471 15.0344 11.5744C15.3297 12.1409 15.8325 12.5292 16.4142 12.6851C17.0705 12.8609 17.791 12.7327 18.37 12.2703C18.949 11.8079 19.3913 11.0508 19.6747 9.99305C19.9797 8.8548 19.7616 7.59171 19.4944 6.59412C19.2271 5.59654 18.8891 4.85071 18.8891 4.85071C18.85 4.76472 18.7858 4.69256 18.7049 4.64371C18.624 4.59485 18.5303 4.57157 18.4359 4.57692Z" fill="#FFAF7A"/>
<path d="M18.3993 4.58057C18.3237 4.59059 18.2517 4.61887 18.1896 4.66298C18.1896 4.66298 17.5254 5.13768 16.7951 5.86799C16.0649 6.59829 15.2423 7.58476 14.9373 8.72301C14.6539 9.78076 14.6598 10.6592 14.93 11.3491C15.0535 11.6645 15.2391 11.9312 15.4647 12.1476C15.3131 11.9619 15.1845 11.7514 15.0912 11.513C14.8074 10.7885 14.8009 9.86582 15.0985 8.75506C15.4188 7.55975 16.2828 6.5241 17.0497 5.75719C17.7179 5.08892 18.252 4.68899 18.3993 4.58057Z" fill="#FFEBDE"/>
<path d="M25.8463 4.25412C25.579 5.25169 25.1386 6.45628 24.3053 7.28954C23.531 8.06386 22.7699 8.49714 22.0374 8.60809C21.5479 8.68222 21.0787 8.59315 20.6768 8.38467C20.7799 8.58446 20.9106 8.76872 21.0705 8.92857C21.5509 9.40899 22.2424 9.65667 22.9749 9.54572C23.7075 9.43478 24.4686 9.00149 25.2429 8.22717C26.0762 7.39392 26.5165 6.18932 26.7839 5.19176C27.0512 4.1942 27.1318 3.3815 27.1318 3.3815C27.1467 3.23922 27.0958 3.09794 26.9935 2.99784C26.9817 2.9865 26.9691 2.97581 26.956 2.96579C26.8685 2.89794 26.7599 2.86323 26.6346 2.86873C26.6346 2.86873 26.4142 2.89188 26.1265 2.93649C26.0742 3.26849 25.9896 3.7192 25.8463 4.25412Z" fill="#FFAF7A"/>
<path d="M26.62 2.86985C26.62 2.86985 25.8046 2.94771 24.8071 3.21506C23.8095 3.4824 22.606 3.92377 21.7728 4.75703C20.9984 5.53135 20.568 6.29525 20.457 7.02786C20.3461 7.76048 20.5901 8.44835 21.0705 8.92877C21.3947 9.25302 21.8158 9.46788 22.28 9.54135C21.865 9.45114 21.4902 9.24504 21.195 8.94984C20.7146 8.46942 20.4697 7.78155 20.5806 7.04893C20.6916 6.31632 21.123 5.55242 21.8973 4.7781C22.7305 3.94484 23.9332 3.50255 24.9307 3.23521C25.9283 2.96787 26.7445 2.89092 26.7445 2.89092C26.7655 2.88889 26.7866 2.88828 26.8077 2.8891C26.7565 2.87306 26.7029 2.86594 26.6493 2.86803C26.6396 2.86833 26.6297 2.86894 26.62 2.86985Z" fill="#FFEBDE"/>
</g>
<defs>
<clipPath id="clip0_993_1242">
<rect width="30" height="30" fill="white"/>
</clipPath>
</defs>
</svg>
