<svg width="30" height="30" viewBox="0 0 30 30" fill="none" xmlns="http://www.w3.org/2000/svg">
<path d="M18.1875 9.05029H6.50012V13.8251H18.1875V9.05029Z" fill="#E0E0E0"/>
<path d="M18.1875 13.8247H6.50012V22.975H18.1875V13.8247Z" fill="#039BE5"/>
<path d="M18.1875 22.9751H6.50012V27.7499H18.1875V22.9751Z" fill="#E0E0E0"/>
<path d="M23.4999 9.05029H18.1875V13.8251H23.4999V9.05029Z" fill="#BDBDBD"/>
<path d="M23.4999 13.8247H18.1875V22.975H23.4999V13.8247Z" fill="#0288D1"/>
<path d="M23.4999 22.9751H18.1875V27.7499H23.4999V22.9751Z" fill="#BDBDBD"/>
<path d="M23.4999 9.05009H18.1875V9.04979L20.8437 4.80029L23.4999 9.05009Z" fill="#A5A5A5"/>
<path d="M20.8437 4.7998V4.8001L18.1875 9.0496H6.50012L9.15632 4.7998H20.8437Z" fill="#BDBDBD"/>
<path d="M20.8436 2.25H9.15625V4.8H20.8436V2.25Z" fill="#8E8E8E"/>
<path d="M13.7943 19.3926C13.7943 19.5831 13.7568 19.7717 13.6839 19.9477C13.611 20.1237 13.5042 20.2836 13.3695 20.4183C13.2348 20.553 13.0749 20.6598 12.8989 20.7327C12.7229 20.8056 12.5343 20.8431 12.3438 20.8431C12.1533 20.8431 11.9647 20.8056 11.7887 20.7327C11.6127 20.6598 11.4528 20.553 11.3182 20.4183C11.1835 20.2836 11.0766 20.1237 11.0037 19.9477C10.9308 19.7717 10.8933 19.5831 10.8933 19.3926C10.8933 18.5916 12.3438 15.957 12.3438 15.957C12.3438 15.957 13.7943 18.5916 13.7943 19.3926Z" fill="#EEEEEE"/>
</svg>
