<svg width="30" height="30" viewBox="0 0 30 30" fill="none" xmlns="http://www.w3.org/2000/svg">
<g clip-path="url(#clip0_993_1322)">
<path d="M7.82726 10.4168C4.66451 13.5788 4.89201 17.5181 7.46266 20.0881C10.0333 22.6581 13.9737 22.8855 17.1364 19.7236C18.1686 18.6877 19.1227 16.4154 20.1143 15.4178C21.1278 14.3983 23.0717 13.852 24.3168 12.6071C26.6707 10.2538 26.496 9.80638 27.1188 7.93939C27.5859 6.53913 28.7673 6.64958 28.5739 5.46879C28.362 4.17556 26.0109 3.44761 25.2052 2.91414C21.5184 0.473086 18.3424 1.03244 15.0546 4.31937C14.2117 5.16514 13.8994 6.40371 13.0357 7.18165C11.7726 8.31938 9.10302 9.14506 7.82726 10.4168Z" fill="#FF9751"/>
<path d="M27.5038 4.15381C27.5662 4.27446 27.6149 4.39892 27.6366 4.53102C27.83 5.71183 26.6489 5.60183 26.1818 7.00208C25.5589 8.86907 25.7332 9.31623 23.3793 11.6695C22.1341 12.9144 20.1904 13.4607 19.1769 14.4803C18.1853 15.4778 17.2308 17.7502 16.1987 18.7861C13.2285 21.7555 9.57355 21.7347 7.01025 19.5927C7.15181 19.7627 7.30249 19.928 7.46253 20.088C10.0332 22.658 13.9734 22.8855 17.1362 19.7236C18.1684 18.6877 19.1228 16.4153 20.1145 15.4178C21.1279 14.3982 23.0717 13.8519 24.3168 12.607C26.6707 10.2537 26.4965 9.80659 27.1193 7.93959C27.5864 6.53935 28.7675 6.64934 28.5741 5.46854C28.4883 4.94473 28.0467 4.51679 27.5038 4.15381Z" fill="#FF7F29"/>
<path d="M5.64157 14.2027C5.16803 16.3499 5.85938 18.485 7.46258 20.0878C10.0332 22.6578 13.9735 22.8853 17.1362 19.7234C18.1684 18.6875 19.1229 16.4151 20.1145 15.4176C20.4147 15.1156 20.8012 14.8567 21.2223 14.6073C20.533 14.5016 19.7947 14.4443 18.9948 14.4443C17.7233 14.4461 16.5558 15.1441 15.3198 15.0797C13.5122 14.9857 10.8803 13.5975 8.96224 13.5947C7.71395 13.5947 6.60464 13.8148 5.64157 14.2027Z" fill="#FF7F29"/>
<path d="M15.0542 4.31942C14.2112 5.16519 13.8991 6.40346 13.0354 7.1814C11.7723 8.31911 9.10263 9.14518 7.82685 10.4169C5.17152 13.0716 4.91342 16.271 6.41783 18.7512C5.50548 16.3275 6.04186 13.3868 8.35514 11.0056C9.61148 9.71616 12.1376 9.03443 13.3815 7.88088C14.7631 6.59956 14.6113 5.85721 15.4414 4.99966C18.6792 1.66695 21.7142 1.1513 25.3449 3.62635C26.0763 4.12496 28.0967 4.79246 28.5722 5.92071C28.5981 5.79208 28.6031 5.64585 28.574 5.46843C28.3621 4.1752 26.0105 3.44752 25.2048 2.91404C23.5918 1.84609 22.0765 1.35202 20.6069 1.40981C18.7175 1.48404 16.9036 2.47052 15.0542 4.31942Z" fill="#FFC6A0"/>
<path d="M12.0901 9.19256C11.7929 9.34404 11.4586 9.2836 11.3434 9.05755C11.2282 8.83151 11.3757 8.52547 11.6729 8.37398C11.9701 8.2225 12.3044 8.28295 12.4196 8.50899C12.5349 8.73503 12.3873 9.04108 12.0901 9.19256Z" fill="#FFC6A0"/>
<path d="M8.96236 14.5322C4.20038 14.5322 1.40527 17.6698 1.40527 21.5402C1.40527 25.4106 4.20038 28.5482 8.96236 28.5482C10.5195 28.5447 12.9489 27.5524 14.4465 27.5478C15.9773 27.5425 17.852 28.595 19.7268 28.595C23.2709 28.595 23.4763 28.1265 25.3511 27.1896C26.7571 26.4868 27.5633 27.4594 28.3069 26.4246C29.1212 25.2913 27.8994 22.9732 27.6945 21.965C26.7571 17.3514 23.945 15.3817 18.9948 15.3817C17.7233 15.3835 16.5555 16.0815 15.3195 16.0171C13.5119 15.923 10.8804 14.535 8.96236 14.5322Z" fill="#FF9751"/>
<path d="M7.72159 18.7121C8.42391 18.3574 8.75789 17.8054 9.17284 18.2629C9.58778 18.7203 9.20136 19.7151 8.49878 20.0699C7.79646 20.4246 6.75191 20.1829 6.62954 19.5476C6.54291 19.0975 7.01928 19.0669 7.72159 18.7121Z" fill="#FF8A3C"/>
<path d="M25.0447 17.105C25.8553 18.1046 26.4256 19.3974 26.7568 21.0272C26.9616 22.0354 28.1836 24.3535 27.3693 25.4868C26.6257 26.5216 25.8199 25.5495 24.4139 26.2522C22.5391 27.1892 22.3338 27.6576 18.7897 27.6576C16.9149 27.6576 15.0395 26.6054 13.5088 26.6102C12.0112 26.6155 9.58178 27.6079 8.0247 27.6109C5.90207 27.6109 4.17356 26.9848 2.90588 25.951C4.18983 27.5345 6.25779 28.5484 8.96221 28.5484C10.5193 28.5448 12.9487 27.5523 14.4463 27.5477C15.9771 27.5424 17.8524 28.5951 19.7272 28.5951C23.2713 28.5951 23.4766 28.1267 25.3514 27.1897C26.7575 26.487 27.5632 27.4591 28.3068 26.4243C29.1211 25.291 27.8991 22.9729 27.6943 21.9647C27.2477 19.7669 26.3706 18.1757 25.0447 17.105Z" fill="#FF7F29"/>
<path d="M4.76344 16.8025C4.48692 16.9891 4.14771 16.9698 4.0058 16.7595C3.8639 16.5492 3.97302 16.2274 4.24954 16.0409C4.52607 15.8543 4.86527 15.8735 5.00718 16.0838C5.14909 16.2941 5.03996 16.6159 4.76344 16.8025Z" fill="#FFC6A0"/>
<path d="M21.9034 8.06186C22.3921 7.74409 22.5936 7.31072 22.936 7.61419C23.2784 7.91761 23.0738 8.68137 22.5851 8.99917C22.0965 9.31696 21.3078 9.22304 21.1665 8.76504C21.0664 8.44061 21.4148 8.37968 21.9034 8.06186Z" fill="#FF8A3C"/>
<path d="M8.96218 14.5322C4.20022 14.5322 1.40527 17.6694 1.40527 21.5398C1.40527 25.4102 4.20022 28.5483 8.96218 28.5483C10.5193 28.5448 12.9486 27.5523 14.4463 27.5476C15.977 27.5423 17.8524 28.595 19.7272 28.595C23.2713 28.595 23.4766 28.1266 25.3514 27.1896C26.7574 26.4869 27.5632 27.459 28.3067 26.4243C29.1211 25.291 27.8991 22.9729 27.6942 21.9646C26.7569 17.3511 23.9449 15.3819 18.9947 15.3819C17.7233 15.3836 16.5557 16.0816 15.3197 16.0173C13.5122 15.9232 10.8803 14.535 8.96218 14.5322ZM8.98876 15.2225C10.8446 15.2243 13.3493 16.4835 15.0982 16.5702C16.665 16.648 17.8387 15.9873 19.0689 15.9852C23.8584 15.9852 26.5795 17.7999 27.4864 22.0516C27.6846 22.9808 28.8667 25.1171 28.0788 26.1615C27.3594 27.1151 26.5791 26.2189 25.2186 26.8665C23.4047 27.7299 23.2057 28.1619 19.7766 28.1619C17.9627 28.1619 16.1489 27.1925 14.6679 27.197C13.2188 27.2005 10.8689 28.1161 9.3623 28.1189C4.75492 28.1189 2.04983 25.2275 2.04983 21.6607C2.04983 18.0938 4.38137 15.2225 8.98876 15.2225Z" fill="#FFC6A0"/>
<path d="M14.4488 28.0148C15.1061 28.013 15.9282 28.2566 16.8262 28.5201C17.7243 28.7836 18.7006 29.063 19.7255 29.063C23.3106 29.063 23.6657 28.5734 25.5588 27.6064C26.1524 27.3098 26.5555 27.3713 27.0501 27.3986C27.2974 27.4128 27.5725 27.4225 27.8704 27.3263C28.1682 27.2301 28.4348 27.0475 28.687 26.6965C29.2232 25.9501 29.0736 24.9158 28.8325 24.025C28.5915 23.1341 28.2307 22.2645 28.1505 21.8699C27.6662 19.4863 26.6839 17.7224 25.1267 16.5654C24.0904 15.7954 22.8203 15.3147 21.3358 15.0814C21.6469 14.8911 21.9899 14.7078 22.352 14.5101C23.1236 14.0886 23.9616 13.6235 24.6461 12.9391C27.029 10.5566 26.9518 9.99262 27.5628 8.08776C27.7508 7.50149 28.0908 7.25285 28.4068 6.96993C28.5807 6.8142 28.7718 6.63471 28.9085 6.36752C29.0452 6.10033 29.1004 5.78157 29.0367 5.39251C28.8883 4.48677 27.9931 3.8735 27.3449 3.49923C26.5908 3.0664 25.8262 2.76399 25.4627 2.52329C23.7927 1.41748 22.1863 0.881009 20.5888 0.942203C20.3627 0.951061 20.1369 0.971259 19.9123 1.00439C18.1152 1.26931 16.4102 2.29976 14.7225 3.98711C13.8417 4.87096 13.4921 6.14179 12.7222 6.83528C12.1709 7.33194 11.2094 7.82364 10.2212 8.33305C9.23299 8.84248 8.21538 9.36897 7.49771 10.0844C6.01449 11.5674 5.22233 13.22 5.06089 14.8732C2.44549 16.122 0.9375 18.5937 0.9375 21.5411C0.9375 25.7067 3.9734 29.0145 8.96336 29.0145C9.8428 29.0128 10.8509 28.752 11.8406 28.5027C12.8303 28.2534 13.8028 28.0168 14.4488 28.0148ZM20.7243 2.94621C20.2867 2.61946 19.8698 2.34729 19.3786 2.07465C19.6008 2.0137 19.8255 1.96463 20.0478 1.93185C20.2395 1.9035 20.4317 1.88561 20.6254 1.87781C20.7572 1.8725 20.8897 1.8725 21.0227 1.87691C21.9538 1.90898 22.9281 2.18396 23.9459 2.71276C23.1654 2.63817 22.3945 2.62931 21.6324 2.74481C21.3306 2.79052 21.0392 2.85412 20.7243 2.94621ZM15.3194 4.72139C15.9896 4.04468 16.9168 3.18424 18.2004 2.52965C18.6944 2.75234 19.1859 3.02596 19.6688 3.34722C18.7225 3.78938 17.7564 4.49591 16.7732 5.48676C16.3324 5.20815 15.8386 4.9453 15.3194 4.72139ZM26.3065 4.02668C25.1248 4.094 23.9597 4.383 22.8436 4.92069C22.6256 4.66774 22.377 4.40313 22.1671 4.19314C21.998 4.02413 21.8149 3.85153 21.6388 3.69328C21.684 3.68619 21.729 3.67911 21.7744 3.6722C22.12 3.61976 22.4702 3.59655 22.8299 3.59621C23.8827 3.59507 25.0054 3.78881 26.3065 4.02668ZM20.5454 3.99296C20.8741 4.25856 21.1911 4.54291 21.4969 4.84865C21.6736 5.02529 21.8373 5.19968 21.9995 5.38331C21.276 5.82395 20.5788 6.37944 19.9086 7.04955C19.7153 7.24353 19.5448 7.43487 19.3731 7.63546C19.2662 7.52101 19.1587 7.41011 19.0472 7.29856C18.58 6.83154 18.0784 6.40244 17.5626 6.02158C18.6402 4.96976 19.6105 4.34379 20.5454 3.99296ZM25.7529 6.08093C25.3936 6.82499 25.046 7.44074 24.7303 7.89822C24.4142 7.16345 23.9744 6.39337 23.4432 5.67718C24.5757 5.16341 25.7934 4.93118 27.019 4.94478C26.4055 5.26094 25.9416 5.67125 25.7529 6.08093ZM26.6729 7.7901C26.2196 9.14902 26.2033 9.67531 25.4151 10.6996C25.3966 10.1434 25.2925 9.5451 25.1141 8.94529C25.5955 8.35055 26.0493 7.62351 26.597 6.48916C26.717 6.24063 27.0422 5.99564 27.4273 5.7897C27.6762 5.65665 27.9111 5.55876 28.0992 5.49034C28.1033 5.50628 28.1067 5.52861 28.1093 5.54438C28.142 5.74362 28.1196 5.85375 28.0745 5.94169C28.022 6.04426 27.9363 6.13192 27.7807 6.27126C27.4285 6.58654 26.9452 6.97397 26.6729 7.7901ZM14.752 5.49936C15.2204 5.68926 15.7133 5.9381 16.176 6.21923C15.6407 7.01394 15.2859 7.90168 14.6731 8.52616L13.5169 7.36987C14.0599 6.80716 14.3449 6.17751 14.752 5.49936ZM22.601 6.11562C23.2465 6.97625 23.738 7.86089 24.0556 8.73616C23.5421 9.29125 22.9277 9.82649 22.0233 10.7307C21.9032 10.8503 21.7764 10.9594 21.6407 11.063C21.2458 10.139 20.6873 9.21384 19.9937 8.35406C20.1786 8.12968 20.3684 7.91975 20.5732 7.71411C21.2301 7.05735 21.9086 6.52818 22.601 6.11562ZM16.9569 6.73789C17.4495 7.09776 17.9363 7.51603 18.3835 7.96312C18.5204 8.10007 18.6516 8.2341 18.7803 8.37573C18.1411 9.21253 17.5678 10.0498 16.8491 10.7023L15.3368 9.18991C16.055 8.46259 16.3179 7.71214 16.9569 6.73789ZM13.9297 9.11027C13.3309 9.5033 12.5671 9.89075 11.7885 10.2913C11.5814 10.3978 11.3711 10.5096 11.1643 10.6189C10.9088 10.1564 10.6888 9.66297 10.5355 9.22729C10.5724 9.20816 10.6128 9.18601 10.6496 9.16705C11.3942 8.7832 12.1535 8.40813 12.7872 7.96954L13.9297 9.11027ZM19.3987 9.1121C20.0086 9.90406 20.4883 10.7111 20.8387 11.5767C20.6006 11.7071 20.3431 11.8336 20.089 11.9593C19.6644 12.1695 19.2226 12.3872 18.8027 12.656L17.5127 11.3659C18.2669 10.6739 18.8316 9.86947 19.3987 9.1121ZM9.70031 9.66965C9.87376 10.1397 10.0921 10.6129 10.3459 11.0731C9.76506 11.415 9.22393 11.7853 8.78851 12.2194C8.43536 12.5724 8.11429 12.9393 7.83185 13.3097C7.58312 12.8039 7.38554 12.2836 7.25511 11.8028C7.51351 11.4476 7.81576 11.091 8.15867 10.7481C8.53206 10.3759 9.08333 10.0158 9.70031 9.66965ZM14.6035 9.78498L16.1323 11.313C15.3202 11.9762 14.3396 12.701 13.3676 13.4397C13.2876 13.3639 13.2126 13.2902 13.1342 13.2117C12.5743 12.6519 12.0738 12.0448 11.653 11.4182C11.8376 11.3201 12.0293 11.2222 12.2178 11.1253C13.0535 10.6954 13.9015 10.2752 14.6035 9.78498ZM21.9757 11.9776C22.2229 11.807 22.4596 11.6191 22.6843 11.3954C23.3583 10.7215 23.8986 10.2364 24.3577 9.77722C24.5172 10.5358 24.5214 11.2618 24.3754 11.8769C24.2468 12.01 24.1345 12.1252 23.9854 12.2743C23.5175 12.7421 22.9129 13.1181 22.2806 13.4737C22.2361 12.9804 22.1305 12.4833 21.9757 11.9776ZM10.8323 11.8717C11.299 12.5906 11.8488 13.2521 12.4696 13.8727C12.5197 13.9229 12.5665 13.9673 12.6173 14.0166C12.3517 14.2236 12.0876 14.4302 11.8328 14.6382C10.8608 14.3341 9.88352 14.0645 8.96341 14.0631C8.77993 14.0631 8.60801 14.0684 8.43153 14.0773C8.7248 13.6683 9.05949 13.2735 9.45317 12.8796C9.80214 12.5315 10.2841 12.195 10.8323 11.8717ZM18.0539 13.2337C18.0185 13.267 17.9814 13.2986 17.9467 13.3335C17.4185 13.8649 16.9361 14.6432 16.4737 15.4144C16.3988 15.4332 16.3524 15.4438 16.2787 15.4601C15.5082 15.0945 14.7828 14.6342 14.0853 14.0704C15.0261 13.3588 15.9832 12.6502 16.7978 11.9784L18.0539 13.2337ZM21.1445 12.4775C21.2882 12.996 21.3604 13.5053 21.366 13.9789C21.099 14.1267 20.8395 14.2781 20.5906 14.4422L19.4838 13.3353C19.7995 13.1473 20.1442 12.9777 20.5037 12.7998C20.7094 12.6979 20.9335 12.5888 21.1445 12.4775ZM7.23497 14.1868C7.23141 14.1938 7.22965 14.1992 7.22434 14.207C6.81722 14.2784 6.43415 14.3673 6.0617 14.4871C6.16269 13.9366 6.34126 13.4066 6.61465 12.8566C6.78455 13.306 6.99111 13.7457 7.23497 14.1868ZM17.7922 15.0682C18.0962 14.6099 18.3407 14.2536 18.7145 13.8961L19.746 14.9276C19.4981 14.9169 19.2539 14.9116 18.9941 14.9116C18.5737 14.9124 18.1667 14.9823 17.7922 15.0682ZM13.3213 14.6538C13.6198 14.9042 13.9434 15.1533 14.2549 15.3697C13.8382 15.2679 13.3708 15.1236 12.9069 14.9779C13.0438 14.8699 13.1814 14.762 13.3213 14.6538ZM8.96153 15.0007C9.53648 15.0015 10.2311 15.1507 10.971 15.3595C10.7376 15.8608 10.5479 16.4018 10.3878 16.9608C9.68564 16.7765 8.99071 16.6422 8.3317 16.6412C7.78253 16.6412 7.25502 16.68 6.74885 16.7511C6.94824 16.1579 7.19392 15.6096 7.47848 15.116C7.94688 15.043 8.43909 15.0007 8.96153 15.0007ZM6.27069 15.4041C6.0445 15.8933 5.87071 16.3808 5.70614 16.9525C4.57095 17.226 3.51683 17.721 2.62836 18.3871C3.38379 16.9869 4.60234 15.9542 6.27069 15.4041ZM12.0412 15.6864C12.8854 15.9563 13.7948 16.2548 14.5285 16.3905V18.1725C13.7801 18.0176 12.9163 17.7347 12.0302 17.4506C11.7846 17.372 11.5326 17.2926 11.2853 17.2162C11.446 16.6539 11.6523 16.1047 11.8883 15.6388C11.9395 15.6547 11.9898 15.6699 12.0412 15.6864ZM19.3877 17.5824C19.2492 16.9813 19.0661 16.4006 18.8467 15.8557C18.8963 15.8522 18.9466 15.8487 18.9959 15.8487C20.4485 15.8487 21.7139 16.0328 22.7337 16.3778C22.9335 16.9037 23.1136 17.537 23.2372 18.1684C21.8467 17.667 20.5326 17.5917 19.3877 17.5824ZM15.4659 18.2855L15.4694 16.4874C16.3652 16.4945 17.1532 16.2015 17.8963 16.0086C18.1155 16.5224 18.2984 17.0948 18.4392 17.6776C17.3342 17.8932 16.3707 18.3272 15.4659 18.2855ZM23.89 16.8802C24.1291 17.0127 24.3559 17.1612 24.5692 17.3196C25.6779 18.1434 26.4761 19.3468 26.9728 21.0078C26.4133 20.3157 25.813 19.6893 25.113 19.1736C24.8482 18.9784 24.5633 18.7936 24.2662 18.6316C24.1787 18.0267 24.0551 17.4427 23.89 16.8802ZM10.1617 17.8708C9.98023 18.7543 9.88522 19.6883 9.88522 20.631C9.88522 20.7152 9.89408 20.7971 9.89585 20.881C8.75864 20.7396 7.63774 20.6325 6.63681 20.631C6.46478 20.631 6.28196 20.6308 6.13514 20.6324C6.13514 19.6273 6.25455 18.656 6.46928 17.7444C7.05036 17.6378 7.66898 17.579 8.32831 17.5788C8.86426 17.5795 9.49295 17.6964 10.1617 17.8708ZM5.19715 20.631C5.19715 20.6434 5.19804 20.6548 5.19809 20.6677C4.0019 20.734 2.88956 20.8937 1.88319 21.1832C1.89736 20.8853 1.93209 20.5923 1.98028 20.307L2.0554 20.2154C2.88566 19.2143 4.03032 18.4372 5.45003 17.9959C5.28343 18.8444 5.19715 19.7273 5.19715 20.631ZM14.5284 19.1278V21.4898C13.4111 21.3761 12.1315 21.1818 10.8382 21.0055C10.8347 20.8801 10.8223 20.7573 10.8223 20.631C10.8223 19.7747 10.9045 18.8789 11.0713 18.1345C11.2945 18.2027 11.518 18.2711 11.7434 18.3432C12.6904 18.6467 13.6392 18.9675 14.5284 19.1278ZM19.7154 21.1629C19.7225 20.9853 19.7261 20.8102 19.7261 20.631C19.7261 19.9162 19.6703 19.2075 19.565 18.5225C21.203 18.5385 22.4331 18.8029 23.4008 19.2476C23.449 19.7004 23.4768 20.1651 23.4768 20.631C23.4768 20.91 23.4627 21.2236 23.4481 21.4504C22.5646 21.2326 21.6144 21.1218 20.5925 21.1218C20.2885 21.1223 19.98 21.1359 19.7154 21.1629ZM15.4659 19.2268C16.4788 19.2605 17.6613 18.7934 18.6261 18.5979C18.7299 19.2515 18.7882 19.9442 18.7882 20.6303C18.7882 20.8456 18.7828 21.0544 18.7722 21.2666C17.6398 21.4176 16.5612 21.6243 15.5042 21.5682C15.4919 21.568 15.4781 21.5668 15.4659 21.565V19.2268ZM24.5556 19.928C25.7488 20.8072 26.6578 22.0915 27.745 23.6661C27.755 23.6957 27.7683 23.7261 27.778 23.7557C26.7995 22.8654 25.6507 22.1512 24.3706 21.7233C24.3981 21.3622 24.4108 21.001 24.4108 20.6311C24.4108 20.3564 24.4038 20.0802 24.388 19.809C24.4445 19.8481 24.5003 19.8873 24.5556 19.928ZM10.6432 25.0997C9.77376 25.3106 8.94541 25.4835 8.3317 25.4852C7.91028 25.4852 7.48986 25.4598 7.10039 25.4155C6.60014 24.3147 6.27432 22.9892 6.16845 21.5722C6.32329 21.5687 6.47422 21.5687 6.63259 21.5687C7.61669 21.5702 8.51569 21.6564 9.93924 21.8387C10.0273 22.9786 10.2767 24.1022 10.6432 25.0997ZM1.97472 22.7487C1.94318 22.5568 1.91855 22.3541 1.90243 22.1563C2.87782 21.8477 3.98938 21.6749 5.23197 21.6043C5.31949 22.8988 5.59251 24.1492 6.00552 25.226C4.25525 24.801 2.9109 23.9243 1.97472 22.7487ZM14.5284 24.3792C14.4811 24.3779 14.4344 24.3781 14.3865 24.3783C13.5435 24.38 12.5494 24.6246 11.5605 24.8745C11.2271 23.9967 10.9776 22.9533 10.9014 21.9668C12.1518 22.1388 13.4041 22.3224 14.5284 22.4301L14.5284 24.3792ZM22.4627 25.5172C21.6471 25.5516 20.7869 25.4851 19.4106 25.4851C19.219 25.4847 19.023 25.4692 18.832 25.4421C19.2413 24.4369 19.5205 23.2993 19.6459 22.1105C19.9638 22.0792 20.2748 22.0598 20.5943 22.0593C21.5959 22.0593 22.5157 22.1775 23.3568 22.3933C23.1953 23.5449 22.8903 24.6061 22.4627 25.5172ZM18.691 22.2241C18.5392 23.4221 18.2572 24.404 17.9021 25.238C17.6147 25.1549 17.3149 25.0521 17.0194 24.9523C16.521 24.784 16.0054 24.6087 15.4659 24.4964V22.5024C16.5936 22.5612 17.6581 22.3724 18.691 22.2241ZM27.6305 24.923C27.5819 24.9071 27.5336 24.8917 27.4831 24.8763C26.9964 24.732 26.3254 24.5832 25.7319 24.7902C24.8296 25.1049 24.1329 25.2934 23.5366 25.399C23.8686 24.5672 24.1193 23.6478 24.2607 22.6781C25.5687 23.1641 26.6592 23.9097 27.6305 24.923ZM2.61646 24.6685C3.67207 25.4712 4.96368 26.02 6.47697 26.2762C6.81538 26.9275 7.21332 27.5085 7.67163 27.9937C5.21048 27.6489 3.53377 26.3936 2.61646 24.6685ZM14.5284 27.08C14.5006 27.0795 14.4728 27.0764 14.4452 27.0764C13.9865 27.0779 13.4821 27.1588 12.964 27.2687C12.5835 26.8454 12.2334 26.3252 11.9405 25.7425C12.8673 25.5135 13.7656 25.3169 14.3866 25.315C14.4335 25.3149 14.4814 25.3138 14.5285 25.316L14.5284 27.08ZM15.4659 25.4567C15.8717 25.5549 16.2869 25.6962 16.7191 25.8422C16.9639 25.9247 17.2261 26.0115 17.4829 26.09C17.1893 26.6114 16.8516 27.0674 16.4829 27.4416C16.1439 27.3436 15.8023 27.2544 15.4659 27.188V25.4567ZM25.1405 26.7687C23.7459 27.4657 23.3442 27.8526 21.9071 28.0266C22.3526 27.5645 22.7271 27.0296 23.0615 26.4107C23.8744 26.3266 24.7659 26.1202 26.0404 25.6756C26.3549 25.5648 26.8367 25.6632 27.2094 25.7726C27.516 25.8654 27.7817 25.9801 27.9757 26.0683C27.9615 26.0943 27.9419 26.1268 27.9253 26.1498C27.8017 26.3218 27.6893 26.3992 27.5829 26.4336C27.4766 26.468 27.3699 26.4758 27.1023 26.4611C26.6565 26.4364 25.9653 26.3564 25.1405 26.7687ZM11.945 27.5093C11.8338 27.5373 11.7231 27.5646 11.6118 27.5926C10.7277 27.8153 9.87088 28.0269 9.20898 28.0699C8.64025 27.7145 8.07671 27.1167 7.6277 26.4024C7.85359 26.4148 8.09819 26.4226 8.3317 26.4226C9.14885 26.421 10.0782 26.2097 11.0113 25.9768C11.2791 26.5375 11.5901 27.0537 11.945 27.5093ZM19.4106 26.4226C20.455 26.4226 21.2381 26.4667 21.9438 26.4644C21.4811 27.1855 20.9296 27.7538 20.3194 28.1206C20.1196 28.1241 19.9536 28.1259 19.7255 28.1259C19.0004 28.1259 18.2432 27.9477 17.4826 27.7331C17.8378 27.3141 18.1473 26.8459 18.4228 26.3249C18.7511 26.3905 19.0708 26.4219 19.4106 26.4226Z" fill="black"/>
</g>
<defs>
<clipPath id="clip0_993_1322">
<rect width="30" height="30" fill="white"/>
</clipPath>
</defs>
</svg>
