<svg width="30" height="25" viewBox="0 0 30 25" fill="none" xmlns="http://www.w3.org/2000/svg">
<g clip-path="url(#clip0_993_1305)">
<path d="M13.125 17.5928L19.6875 24.0743L21.5625 23.1289L19.6875 17.5928H13.125Z" fill="#EF7954"/>
<path d="M23.4375 10.1851L20.625 12.9628H23.4375V10.1851Z" fill="#EF7954"/>
<path d="M24.375 11.1113L21.5625 13.8891H24.375V11.1113Z" fill="#EF7954"/>
<path d="M25.3125 12.0371L22.5 14.8149H25.3125V12.0371Z" fill="#EF7954"/>
<path d="M18.75 0V0.462963C19.5263 0.462963 20.1562 1.08519 20.1562 1.85185C20.1562 2.61852 19.5263 3.24074 18.75 3.24074H4.6875C2.09906 3.24074 0 5.31296 0 7.87037C0 10.4278 2.09906 12.5 4.6875 12.5C7.27594 12.5 9.375 10.4278 9.375 7.87037H8.90625C8.90625 10.1713 7.01719 12.037 4.6875 12.037C2.35781 12.037 0.46875 10.1713 0.46875 7.87037C0.46875 5.56944 2.35781 3.7037 4.6875 3.7037H18.75C19.785 3.7037 20.625 2.87407 20.625 1.85185C20.625 0.82963 19.785 0 18.75 0Z" fill="#EF7954"/>
<path d="M0 4.62939C0 8.72014 3.35812 12.0368 7.5 12.0368H19.6875V4.62939H0Z" fill="#FE8455"/>
<path d="M19.6875 4.62939V12.0368C22.7934 12.0368 25.3125 14.5248 25.3125 17.5924C25.3125 20.66 22.7934 23.1479 19.6875 23.1479V24.9998C25.3828 24.9998 30 20.4396 30 14.8146C30 9.18958 25.3828 4.62939 19.6875 4.62939Z" fill="#F79B77"/>
<path d="M19.6875 23.1484L15 20.3706L9.375 25.0002H19.6875V23.1484Z" fill="#FE8455"/>
<path d="M23.8716 13.8887C24.765 14.8729 25.3125 16.1674 25.3125 17.5924C25.3125 18.6053 25.0331 19.5526 24.5531 20.3702H28.3238C29.3813 18.7711 30 16.8655 30 14.8146C30 14.5026 29.9803 14.1942 29.9522 13.8887H23.8716Z" fill="#FE8455"/>
<path d="M7.5 8.3333C8.01777 8.3333 8.4375 7.91875 8.4375 7.40737C8.4375 6.896 8.01777 6.48145 7.5 6.48145C6.98223 6.48145 6.5625 6.896 6.5625 7.40737C6.5625 7.91875 6.98223 8.3333 7.5 8.3333Z" fill="#4C4C4C"/>
<path d="M10.3125 12.0371L7.5 14.8149L18.75 12.0371H10.3125Z" fill="#FE8455"/>
<path d="M7.5 12.0371L6.5625 12.963L10.3125 12.0371H7.5Z" fill="#FE8455"/>
<path d="M18.75 12.0371H10.3125L12 13.7038L18.75 12.0371Z" fill="#EF7954"/>
<path d="M10.3125 12.0371H7.5L8.0625 12.5927L10.3125 12.0371Z" fill="#EF7954"/>
</g>
<defs>
<clipPath id="clip0_993_1305">
<rect width="30" height="25" fill="white"/>
</clipPath>
</defs>
</svg>
