<svg width="64" height="64" viewBox="0 0 64 64" fill="none" xmlns="http://www.w3.org/2000/svg">
<circle cx="32" cy="32" r="31" fill="white" stroke="url(#paint0_linear_957_1241)" stroke-width="2"/>
<path d="M22.5612 46.6959C23.1149 46.6959 23.5239 46.6777 23.7882 46.6412C23.7882 47.1813 23.7369 47.6222 23.6344 47.964H23.2721C23.247 47.5971 23.1639 47.359 23.0226 47.2496C22.9041 47.1562 22.6728 47.1095 22.3287 47.1095H20.9889V49.0133H21.7511C22.0131 49.0133 22.1783 48.9848 22.2467 48.9279C22.3173 48.8709 22.3652 48.8037 22.3903 48.7262C22.4176 48.6487 22.4393 48.5462 22.4552 48.4186H22.8927L22.8141 50.049H22.3937C22.3891 49.8644 22.3606 49.7254 22.3082 49.632C22.2558 49.5385 22.2 49.4804 22.1407 49.4576C22.0906 49.4371 21.9357 49.4257 21.6759 49.4235C21.4161 49.4189 21.2487 49.4166 21.1735 49.4166C21.1005 49.4143 21.039 49.4132 20.9889 49.4132V50.9991C20.9889 51.2088 21.014 51.3421 21.0641 51.399C21.1165 51.4537 21.1746 51.4902 21.2384 51.5084C21.3022 51.5244 21.3671 51.5323 21.4332 51.5323C21.4993 51.5323 21.5529 51.5323 21.5939 51.5323C21.6372 51.5301 21.6827 51.5289 21.7306 51.5289C21.8468 51.5244 21.9414 51.5164 22.0143 51.505L21.9699 51.9254H19.649L19.7072 51.5494C19.935 51.5494 20.0831 51.4993 20.1515 51.399C20.2153 51.3102 20.2472 51.1359 20.2472 50.8761V47.7521C20.2472 47.3123 20.1492 47.0924 19.9532 47.0924C19.8712 47.0924 19.7846 47.1027 19.6935 47.1232L19.7345 46.6959H22.5612ZM25.6066 51.4708C25.6407 51.5118 25.6852 51.538 25.7399 51.5494C25.7968 51.5586 25.9142 51.5631 26.0919 51.5631C26.2697 51.5631 26.4087 51.5494 26.5089 51.5221L26.485 51.9254H24.2838L24.3317 51.5631C24.5322 51.5631 24.6609 51.5278 24.7179 51.4572C24.8204 51.3295 24.8717 51.104 24.8717 50.7804V49.1329C24.8717 48.8253 24.8398 48.6351 24.776 48.5621C24.7054 48.4801 24.5504 48.4323 24.3112 48.4186L24.359 47.9811L25.5861 47.7965C25.5633 47.9628 25.5519 48.1531 25.5519 48.3673C25.7911 48.1394 26.0714 47.9674 26.3927 47.8512C26.5066 47.8125 26.6149 47.7931 26.7174 47.7931C27.1549 47.7931 27.3737 47.9879 27.3737 48.3776C27.3737 48.6077 27.3406 48.8549 27.2745 49.1193C27.27 49.1375 27.2666 49.15 27.2643 49.1569C27.262 49.1614 27.2609 49.1648 27.2609 49.1671H26.6901L26.7106 49.0065L26.7242 48.8698C26.7288 48.8265 26.7311 48.7809 26.7311 48.733C26.7311 48.6852 26.7265 48.6373 26.7174 48.5895C26.7106 48.5416 26.6958 48.5017 26.673 48.4698C26.632 48.4083 26.5625 48.3776 26.4645 48.3776C26.3665 48.3776 26.2731 48.3924 26.1842 48.422C26.0976 48.4516 26.0133 48.4869 25.9313 48.528C25.7649 48.6145 25.6362 48.7034 25.545 48.7946L25.5519 48.7911L25.5553 51.0846C25.5553 51.3011 25.5724 51.4298 25.6066 51.4708ZM29.8312 51.3922C30.2824 51.3626 30.68 51.2544 31.024 51.0675L31.1744 51.3546C30.8304 51.6394 30.4384 51.8343 29.9987 51.9391C29.8665 51.9687 29.7457 51.9835 29.6364 51.9835C28.7773 51.9835 28.2361 51.6041 28.0128 50.8453C27.9399 50.6015 27.9034 50.3178 27.9034 49.9943C27.9034 49.6684 27.9559 49.3688 28.0607 49.0953C28.1678 48.8219 28.3079 48.5895 28.4811 48.3981C28.6565 48.2044 28.8571 48.0551 29.0826 47.9503C29.3082 47.8455 29.5418 47.7931 29.7833 47.7931C30.7518 47.7931 31.236 48.3468 31.236 49.4542V49.4884C31.236 49.7778 31.2018 49.9225 31.1334 49.9225H28.6178C28.6178 50.3987 28.7226 50.761 28.9323 51.0094C29.1442 51.2578 29.4438 51.3854 29.8312 51.3922ZM30.4567 49.485C30.4589 49.4371 30.4601 49.4007 30.4601 49.3756V49.2628C30.4601 48.7273 30.312 48.3981 30.0157 48.275C29.9087 48.2295 29.7936 48.2067 29.6705 48.2067C29.5498 48.2067 29.4472 48.2249 29.3629 48.2614C29.2786 48.2978 29.1989 48.3479 29.1237 48.4117C29.0507 48.4755 28.9835 48.5507 28.922 48.6373C28.8605 48.7216 28.8069 48.8151 28.7614 48.9176C28.6657 49.1295 28.6178 49.346 28.6178 49.567L30.4567 49.485ZM33.9191 51.3922C34.3702 51.3626 34.7679 51.2544 35.1119 51.0675L35.2623 51.3546C34.9183 51.6394 34.5263 51.8343 34.0865 51.9391C33.9544 51.9687 33.8336 51.9835 33.7242 51.9835C32.8652 51.9835 32.324 51.6041 32.1007 50.8453C32.0278 50.6015 31.9913 50.3178 31.9913 49.9943C31.9913 49.6684 32.0437 49.3688 32.1486 49.0953C32.2557 48.8219 32.3958 48.5895 32.569 48.3981C32.7444 48.2044 32.9449 48.0551 33.1705 47.9503C33.3961 47.8455 33.6297 47.7931 33.8712 47.7931C34.8396 47.7931 35.3239 48.3468 35.3239 49.4542V49.4884C35.3239 49.7778 35.2897 49.9225 35.2213 49.9225H32.7057C32.7057 50.3987 32.8105 50.761 33.0201 51.0094C33.2321 51.2578 33.5317 51.3854 33.9191 51.3922ZM34.5446 49.485C34.5468 49.4371 34.548 49.4007 34.548 49.3756V49.2628C34.548 48.7273 34.3999 48.3981 34.1036 48.275C33.9965 48.2295 33.8815 48.2067 33.7584 48.2067C33.6377 48.2067 33.5351 48.2249 33.4508 48.2614C33.3665 48.2978 33.2867 48.3479 33.2115 48.4117C33.1386 48.4755 33.0714 48.5507 33.0099 48.6373C32.9484 48.7216 32.8948 48.8151 32.8492 48.9176C32.7535 49.1295 32.7057 49.346 32.7057 49.567L34.5446 49.485ZM38.4342 48.2716C38.302 48.267 38.1665 48.2648 38.0275 48.2648C37.5102 48.2648 37.1673 48.3012 36.9987 48.3741C36.7959 48.463 36.6785 48.6818 36.6466 49.0304H36.2057L36.3219 47.858H39.316L39.3741 48.2101C39.3628 48.2238 39.3252 48.2716 39.2614 48.3536C38.3317 49.6411 37.7711 50.4261 37.5797 50.7086C37.3906 50.9889 37.2163 51.2623 37.0568 51.5289C37.6925 51.5289 38.0935 51.5164 38.2599 51.4913C38.4285 51.4663 38.5459 51.4389 38.6119 51.4093C38.678 51.3774 38.7395 51.3284 38.7965 51.2623C38.9173 51.1256 39.0096 50.9057 39.0734 50.6027H39.5006L39.34 51.9254H36.2433L36.11 51.6281V51.6212L37.6993 49.3688L38.1163 48.7604C38.2439 48.5712 38.3499 48.4083 38.4342 48.2716ZM44.0568 48.2545C44.0089 48.2477 43.969 48.2443 43.9371 48.2443C43.9075 48.2443 43.8779 48.2591 43.8483 48.2887C43.8186 48.316 43.7879 48.3559 43.756 48.4083C43.7264 48.4607 43.6945 48.5234 43.6603 48.5963L43.5543 48.8458C43.4449 49.1033 43.331 49.3893 43.2125 49.7037L42.4161 51.816L42.2042 52.3561C42.0379 52.7594 41.9103 53.0271 41.8214 53.1593C41.7325 53.2915 41.646 53.394 41.5616 53.4669C41.3862 53.6196 41.1811 53.6959 40.9464 53.6959C40.7049 53.6959 40.4656 53.5911 40.2286 53.3815C40.1603 53.3199 40.101 53.255 40.0509 53.1866L40.2731 52.8073L40.3038 52.8038C40.5727 52.9542 40.7983 53.0294 40.9806 53.0294C41.2267 53.0294 41.4352 52.8494 41.6061 52.4894C41.6517 52.3937 41.6915 52.3014 41.7257 52.2125L41.859 51.8673L41.5719 51.734L41.5616 51.7306L40.3722 48.8014C40.3289 48.6966 40.2913 48.6043 40.2594 48.5245C40.2298 48.4448 40.1785 48.3776 40.1056 48.3229C40.0327 48.2682 39.9768 48.2408 39.9381 48.2408H39.8663C39.8572 48.2408 39.8401 48.242 39.8151 48.2443L39.8629 47.8615H41.5924L41.5446 48.2374C41.5035 48.2443 41.4568 48.2477 41.4044 48.2477H41.3121C41.2028 48.2477 41.1241 48.291 41.0763 48.3776C41.0558 48.4163 41.0455 48.4619 41.0455 48.5143C41.0455 48.5667 41.0592 48.6419 41.0865 48.7399C41.1139 48.8356 41.1503 48.9495 41.1959 49.0817C41.3349 49.4645 41.4443 49.7539 41.524 49.9498C41.8636 50.7998 42.047 51.2566 42.0743 51.3204C42.2863 50.7417 42.4161 50.3805 42.464 50.2369L42.775 49.3414C42.9505 48.8606 43.0382 48.5656 43.0382 48.4562C43.0382 48.3126 42.9379 48.2408 42.7374 48.2408C42.6622 48.2408 42.5768 48.2477 42.4811 48.2614L42.5392 47.8615H44.1149L44.0568 48.2545Z" fill="url(#paint1_linear_957_1241)"/>
<path d="M32.582 13.2985H40.1492V33.6716M32.582 13.2985V10H30.8358M32.582 13.2985V33.6716M30.8358 10L23.4626 13.2985V33.6716M30.8358 10V35.4179M30.8358 35.4179L23.4626 33.6716M30.8358 35.4179H32.582V33.6716M23.4626 33.6716V42.209H40.1492V33.6716M32.582 33.6716H40.1492" stroke="url(#paint2_linear_957_1241)" stroke-width="1.5"/>
<path d="M29.2835 28.2388H27.9253V31.5373H29.2835" stroke="url(#paint3_linear_957_1241)" stroke-width="1.5" stroke-linecap="round"/>
<line x1="37.7947" y1="37.1381" x2="37.7947" y2="38.3545" stroke="#65AE9B" stroke-width="1.5" stroke-linecap="round"/>
<line x1="33.5261" y1="29.041" x2="39.0112" y2="29.041" stroke="url(#paint4_linear_957_1241)" stroke-width="1.5" stroke-linecap="round"/>
<line x1="33.5261" y1="23.9962" x2="39.0112" y2="23.9962" stroke="url(#paint5_linear_957_1241)" stroke-width="1.5" stroke-linecap="round"/>
<line x1="33.5261" y1="18.9515" x2="39.0112" y2="18.9515" stroke="url(#paint6_linear_957_1241)" stroke-width="1.5" stroke-linecap="round"/>
<defs>
<linearGradient id="paint0_linear_957_1241" x1="9.69697" y1="64" x2="58.1818" y2="64" gradientUnits="userSpaceOnUse">
<stop stop-color="#7C67BB"/>
<stop offset="1" stop-color="#63B498"/>
</linearGradient>
<linearGradient id="paint1_linear_957_1241" x1="13.7612" y1="59.2836" x2="52.5672" y2="59.2836" gradientUnits="userSpaceOnUse">
<stop stop-color="#7C67BB"/>
<stop offset="1" stop-color="#63B498"/>
</linearGradient>
<linearGradient id="paint2_linear_957_1241" x1="23.4626" y1="25.5224" x2="40.7313" y2="26.6866" gradientUnits="userSpaceOnUse">
<stop stop-color="#7D62BD"/>
<stop offset="1" stop-color="#62B498"/>
</linearGradient>
<linearGradient id="paint3_linear_957_1241" x1="27.9253" y1="29.8284" x2="29.3332" y2="29.9039" gradientUnits="userSpaceOnUse">
<stop stop-color="#7285AE"/>
</linearGradient>
<linearGradient id="paint4_linear_957_1241" x1="33.3582" y1="29.791" x2="38.597" y2="29.791" gradientUnits="userSpaceOnUse">
<stop stop-color="#6F90A9"/>
<stop offset="1" stop-color="#63B399"/>
</linearGradient>
<linearGradient id="paint5_linear_957_1241" x1="32.7761" y1="24.7462" x2="39.3246" y2="24.7462" gradientUnits="userSpaceOnUse">
<stop stop-color="#6F90A9"/>
<stop offset="1" stop-color="#63B399"/>
</linearGradient>
<linearGradient id="paint6_linear_957_1241" x1="32.7761" y1="19.2015" x2="39.1063" y2="19.2015" gradientUnits="userSpaceOnUse">
<stop stop-color="#6F90A9"/>
<stop offset="1" stop-color="#63B399"/>
</linearGradient>
</defs>
</svg>
