<svg width="43" height="103" viewBox="0 0 43 103" fill="none" xmlns="http://www.w3.org/2000/svg">
<path d="M89.683 17.9038C81.6649 8.9279 70.7221 3.08799 58.8022 1.42329C46.8822 -0.241404 34.7582 2.37709 24.5877 8.8128C14.4172 15.2485 6.85994 25.084 3.26081 36.5689C-0.338329 48.0538 0.254109 60.4432 4.93269 71.5323C9.61128 82.6214 18.0725 91.6908 28.8107 97.1267C39.5489 102.563 51.8674 104.012 63.5741 101.218C75.2809 98.4234 85.6165 91.566 92.7416 81.866C99.8667 72.166 103.319 60.2526 102.485 48.2459L82.7253 49.6193C83.2347 56.9479 81.1274 64.2196 76.7784 70.1402C72.4294 76.0608 66.1208 80.2464 58.9753 81.9521C51.8298 83.6578 44.3108 82.7729 37.7565 79.455C31.2022 76.1371 26.0376 70.6013 23.1819 63.8328C20.3262 57.0643 19.9646 49.5021 22.1615 42.4919C24.3583 35.4818 28.971 29.4785 35.1789 25.5503C41.3867 21.6221 48.7869 20.0238 56.0626 21.0399C63.3382 22.056 70.0174 25.6206 74.9115 31.0992L89.683 17.9038Z" fill="url(#paint0_linear_68_3109)"/>
<defs>
<linearGradient id="paint0_linear_68_3109" x1="16.3395" y1="102.607" x2="93.3641" y2="102.607" gradientUnits="userSpaceOnUse">
<stop stop-color="#7C67BB"/>
<stop offset="1" stop-color="#63B498"/>
</linearGradient>
</defs>
</svg>
