<svg width="65" height="150" viewBox="0 0 65 150" fill="none" xmlns="http://www.w3.org/2000/svg">
<path d="M-64.9645 125.502C-52.9672 138.537 -36.7342 146.892 -19.1543 149.082C-1.57434 151.271 16.2121 147.152 31.0399 137.457C45.8678 127.763 56.7751 113.122 61.8208 96.14C66.8666 79.1581 65.7236 60.9367 58.5951 44.7185C51.4667 28.5002 38.8152 15.3372 22.8921 7.57176C6.96902 -0.193658 -11.1928 -2.05772 -28.3613 2.3113C-45.5298 6.68032 -60.5913 16.999 -70.8656 31.4311C-81.1399 45.8632 -85.9605 63.4725 -84.4695 81.1253L-55.4183 78.6716C-56.3284 67.8967 -53.386 57.1484 -47.1149 48.3394C-40.8437 39.5304 -31.6505 33.2322 -21.1712 30.5654C-10.692 27.8987 0.393555 29.0364 10.1126 33.7763C19.8317 38.5161 27.5538 46.5505 31.9049 56.4497C36.2559 66.3489 36.9536 77.4708 33.8738 87.8362C30.794 98.2016 24.1364 107.138 15.0859 113.055C6.03532 118.973 -4.82111 121.487 -15.5515 120.151C-26.2818 118.814 -36.1901 113.714 -43.5129 105.758L-64.9645 125.502Z" fill="url(#paint0_linear_68_3111)"/>
<defs>
<linearGradient id="paint0_linear_68_3111" x1="-62.0601" y1="149.655" x2="51.3151" y2="149.655" gradientUnits="userSpaceOnUse">
<stop stop-color="#7C67BB"/>
<stop offset="1" stop-color="#63B498"/>
</linearGradient>
</defs>
</svg>
